<svg xmlns="http://www.w3.org/2000/svg" xmlns:xlink="http://www.w3.org/1999/xlink" width="600" zoomAndPan="magnify" viewBox="0 0 450 225" height="300" preserveAspectRatio="xMidYMid meet" version="1.0"><defs><clipPath id="75d49fbb85"><path d="M 72 37.5 L 113 37.5 L 113 86 L 72 86 Z M 72 37.5 " clip-rule="nonzero"/></clipPath><clipPath id="94feb46a7a"><path d="M 37.5 37.5 L 187.546875 37.5 L 187.546875 187.546875 L 37.5 187.546875 Z M 37.5 37.5 " clip-rule="nonzero"/></clipPath><clipPath id="92d1b10ace"><path d="M 372 183 L 379 183 L 379 187.546875 L 372 187.546875 Z M 372 183 " clip-rule="nonzero"/></clipPath><clipPath id="16f34bd35e"><path d="M 350 184.160156 L 360.664062 184.160156 L 360.664062 187.277344 L 350 187.277344 Z M 350 184.160156 " clip-rule="nonzero"/></clipPath><clipPath id="745bdf89de"><path d="M 371 182.023438 L 382.902344 182.023438 L 382.902344 187.277344 L 371 187.277344 Z M 371 182.023438 " clip-rule="nonzero"/></clipPath><clipPath id="498cd82d6a"><path d="M 387 182 L 400 182 L 400 187.546875 L 387 187.546875 Z M 387 182 " clip-rule="nonzero"/></clipPath><clipPath id="96bebf243a"><path d="M 331.582031 184.160156 L 343.554688 184.160156 L 343.554688 187.277344 L 331.582031 187.277344 Z M 331.582031 184.160156 " clip-rule="nonzero"/></clipPath><clipPath id="f0d549bb2d"><path d="M 325.164062 184.160156 L 336.285156 184.160156 L 336.285156 187.277344 L 325.164062 187.277344 Z M 325.164062 184.160156 " clip-rule="nonzero"/></clipPath><clipPath id="a34746d815"><path d="M 387.605469 96.488281 L 412.4375 96.488281 L 412.4375 130.699219 L 387.605469 130.699219 Z M 387.605469 96.488281 " clip-rule="nonzero"/></clipPath><clipPath id="141cab8a6e"><path d="M 197 112.621094 L 257.382812 112.621094 L 257.382812 172.511719 L 197 172.511719 Z M 197 112.621094 " clip-rule="nonzero"/></clipPath><clipPath id="e2aa660ac8"><path d="M 190.425781 52.566406 L 263.839844 52.566406 L 263.839844 102.796875 L 190.425781 102.796875 Z M 190.425781 52.566406 " clip-rule="nonzero"/></clipPath></defs><rect x="-45" width="540" fill="#ffffff" y="-22.5" height="270" fill-opacity="1"/><rect x="-45" width="540" fill="#ffffff" y="-22.5" height="270" fill-opacity="1"/><path fill="#e7f2f1" d="M 160.324219 135.363281 C 159.386719 135.363281 158.46875 135.410156 157.550781 135.515625 L 157.550781 135.503906 L 150.226562 92.683594 C 150.226562 92.683594 145.75 90.144531 139.234375 89.121094 L 147.65625 82.976562 C 150.371094 83.726562 153.265625 84.144531 156.289062 84.144531 C 171.390625 84.144531 183.628906 73.960938 183.628906 61.410156 C 183.628906 48.871094 171.390625 38.6875 156.289062 38.6875 C 141.175781 38.6875 128.933594 48.871094 128.933594 61.410156 C 128.933594 68.152344 132.460938 74.199219 138.066406 78.355469 L 135.566406 88.753906 C 135.042969 88.714844 134.496094 88.703125 133.949219 88.703125 C 124.695312 88.703125 117.074219 92.683594 117.074219 92.683594 C 117.074219 92.683594 115.8125 92.015625 113.679688 91.242188 C 115.035156 88.777344 116.144531 86.261719 116.144531 84.738281 C 116.144531 80.90625 112.976562 77.808594 109.070312 77.808594 C 105.152344 77.808594 101.984375 80.90625 101.984375 84.738281 C 101.984375 85.761719 102.496094 87.238281 103.234375 88.847656 C 102.257812 88.753906 101.234375 88.703125 100.210938 88.703125 C 90.945312 88.703125 83.933594 92.683594 83.933594 92.683594 L 81.167969 108.792969 C 80.8125 97.625 71.414062 88.609375 59.925781 88.609375 C 48.195312 88.609375 38.691406 97.910156 38.691406 109.378906 C 38.691406 120.847656 48.195312 130.148438 59.925781 130.148438 C 68.449219 130.148438 76.238281 125.0625 79.609375 117.953125 L 75.773438 140.386719 C 77.488281 141.589844 78.539062 143.414062 78.90625 145.855469 C 78.90625 145.855469 86.230469 140.484375 96.746094 140.386719 C 96.828125 140.386719 96.925781 140.386719 97.007812 140.386719 C 107.664062 140.386719 117.074219 145.855469 117.074219 145.855469 C 117.074219 145.855469 126.480469 140.386719 137.140625 140.386719 C 138.066406 140.386719 138.960938 140.425781 139.832031 140.507812 L 140.414062 144.4375 C 136.589844 148.867188 134.28125 154.582031 134.28125 160.835938 C 134.28125 174.898438 145.941406 186.308594 160.324219 186.308594 C 174.699219 186.308594 186.359375 174.898438 186.359375 160.835938 C 186.359375 146.769531 174.699219 135.363281 160.324219 135.363281 Z M 109.070312 87.226562 C 107.664062 87.226562 106.523438 86.109375 106.523438 84.738281 C 106.523438 83.359375 107.664062 82.25 109.070312 82.25 C 110.476562 82.25 111.605469 83.359375 111.605469 84.738281 C 111.605469 86.109375 110.476562 87.226562 109.070312 87.226562 Z M 109.070312 87.226562 " fill-opacity="1" fill-rule="nonzero"/><path fill="#e7f2f1" d="M 72.164062 165.96875 C 72.164062 177.222656 81.492188 186.355469 93.007812 186.355469 C 104.511719 186.355469 113.835938 177.222656 113.835938 165.96875 C 113.835938 156.976562 107.878906 149.355469 99.628906 146.652344 L 96.746094 140.386719 L 92.136719 145.628906 C 81.039062 146.070312 72.164062 154.988281 72.164062 165.96875 Z M 72.164062 165.96875 " fill-opacity="1" fill-rule="nonzero"/><path fill="#e7f2f1" d="M 92.042969 76.238281 L 96.769531 84.011719 L 98.328125 75.402344 C 106.117188 73.007812 111.761719 65.886719 111.761719 57.480469 C 111.761719 47.097656 103.164062 38.6875 92.566406 38.6875 C 81.953125 38.6875 73.355469 47.097656 73.355469 57.480469 C 73.355469 67.675781 81.679688 75.960938 92.042969 76.238281 Z M 92.042969 76.238281 " fill-opacity="1" fill-rule="nonzero"/><path fill="#894687" d="M 148 156.441406 C 150.203125 156.441406 151.976562 158.179688 151.976562 160.335938 C 151.976562 162.480469 150.203125 164.21875 148 164.21875 C 145.808594 164.21875 144.023438 162.480469 144.023438 160.335938 C 144.023438 158.179688 145.808594 156.441406 148 156.441406 Z M 148 156.441406 " fill-opacity="1" fill-rule="nonzero"/><path fill="#894687" d="M 154.980469 135.898438 C 155.824219 135.730469 156.679688 135.601562 157.550781 135.515625 C 158.46875 135.410156 159.386719 135.363281 160.324219 135.363281 C 174.699219 135.363281 186.359375 146.769531 186.359375 160.835938 C 186.359375 174.898438 174.699219 186.308594 160.324219 186.308594 C 145.941406 186.308594 134.28125 174.898438 134.28125 160.835938 C 134.28125 154.582031 136.589844 148.867188 140.414062 144.4375 L 139.832031 140.507812 L 139.820312 140.386719 L 139.007812 134.921875 L 138.507812 131.503906 Z M 151.976562 160.335938 C 151.976562 158.179688 150.203125 156.441406 148 156.441406 C 145.808594 156.441406 144.023438 158.179688 144.023438 160.335938 C 144.023438 162.480469 145.808594 164.21875 148 164.21875 C 150.203125 164.21875 151.976562 162.480469 151.976562 160.335938 Z M 151.976562 160.335938 " fill-opacity="1" fill-rule="nonzero"/><path fill="#1ea6bc" d="M 77.667969 161.289062 L 84.0625 161.289062 L 84.0625 168.277344 L 77.667969 168.277344 Z M 77.667969 161.289062 " fill-opacity="1" fill-rule="nonzero"/><path fill="#1ea6bc" d="M 84.0625 161.289062 L 90.457031 161.289062 L 90.457031 168.277344 L 84.0625 168.277344 Z M 84.0625 161.289062 " fill-opacity="1" fill-rule="nonzero"/><path fill="#1ea6bc" d="M 96.28125 160.941406 L 106.199219 160.941406 C 104.796875 164.859375 103.175781 168.3125 101.246094 171.136719 C 99.304688 168.3125 97.6875 164.859375 96.28125 160.941406 Z M 96.28125 160.941406 " fill-opacity="1" fill-rule="nonzero"/><path fill="#1ea6bc" d="M 96.28125 160.941406 C 97.6875 164.859375 99.304688 168.3125 101.246094 171.136719 C 103.175781 168.3125 104.796875 164.859375 106.199219 160.941406 Z M 84.0625 168.277344 L 90.457031 168.277344 L 90.457031 161.289062 L 77.667969 161.289062 L 77.667969 168.277344 Z M 99.628906 146.652344 C 107.878906 149.355469 113.835938 156.976562 113.835938 165.96875 C 113.835938 177.222656 104.511719 186.355469 93.007812 186.355469 C 81.492188 186.355469 72.164062 177.222656 72.164062 165.96875 C 72.164062 154.988281 81.039062 146.070312 92.136719 145.628906 L 96.746094 140.386719 Z M 99.628906 146.652344 " fill-opacity="1" fill-rule="nonzero"/><path fill="#ffc05a" d="M 103.046875 49.941406 C 103.855469 50.738281 104.367188 51.835938 104.367188 53.0625 C 104.367188 55.503906 102.34375 57.480469 99.855469 57.480469 L 94.734375 57.480469 L 94.734375 48.644531 L 99.855469 48.644531 C 101.09375 48.644531 102.222656 49.144531 103.046875 49.941406 Z M 103.046875 49.941406 " fill-opacity="1" fill-rule="nonzero"/><path fill="#ffc05a" d="M 99.855469 57.480469 C 102.34375 57.480469 104.367188 55.503906 104.367188 53.0625 C 104.367188 51.835938 103.855469 50.738281 103.046875 49.941406 C 102.222656 49.144531 101.09375 48.644531 99.855469 48.644531 L 94.734375 48.644531 L 94.734375 57.480469 Z M 111.761719 57.480469 C 111.761719 65.886719 106.117188 73.007812 98.328125 75.402344 L 96.769531 84.011719 L 92.042969 76.238281 C 81.679688 75.960938 73.355469 67.675781 73.355469 57.480469 C 73.355469 47.097656 81.953125 38.6875 92.566406 38.6875 C 103.164062 38.6875 111.761719 47.097656 111.761719 57.480469 Z M 111.761719 57.480469 " fill-opacity="1" fill-rule="nonzero"/><path fill="#f48ca7" d="M 170.316406 60.316406 C 170.316406 61.625 169.234375 62.683594 167.886719 62.683594 C 166.636719 62.683594 165.601562 61.753906 165.46875 60.550781 C 165.457031 60.46875 165.457031 60.398438 165.457031 60.316406 C 165.457031 59.003906 166.554688 57.933594 167.886719 57.933594 C 169.234375 57.933594 170.316406 59.003906 170.316406 60.316406 Z M 170.316406 60.316406 " fill-opacity="1" fill-rule="nonzero"/><path fill="#f48ca7" d="M 148.25 68.363281 C 149.585938 68.363281 150.667969 69.425781 150.667969 70.734375 C 150.667969 72.042969 149.585938 73.117188 148.25 73.117188 C 146.90625 73.117188 145.820312 72.042969 145.820312 70.734375 C 145.820312 69.425781 146.90625 68.363281 148.25 68.363281 Z M 148.25 68.363281 " fill-opacity="1" fill-rule="nonzero"/><path fill="#f48ca7" d="M 153.453125 57.933594 C 154.789062 57.933594 155.871094 59.003906 155.871094 60.316406 C 155.871094 61.625 154.789062 62.683594 153.453125 62.683594 C 152.109375 62.683594 151.023438 61.625 151.023438 60.316406 C 151.023438 59.003906 152.109375 57.933594 153.453125 57.933594 Z M 153.453125 57.933594 " fill-opacity="1" fill-rule="nonzero"/><path fill="#f48ca7" d="M 148.25 68.363281 C 146.90625 68.363281 145.820312 69.425781 145.820312 70.734375 C 145.820312 72.042969 146.90625 73.117188 148.25 73.117188 C 149.585938 73.117188 150.667969 72.042969 150.667969 70.734375 C 150.667969 69.425781 149.585938 68.363281 148.25 68.363281 Z M 165.46875 60.550781 C 165.601562 61.753906 166.636719 62.683594 167.886719 62.683594 C 169.234375 62.683594 170.316406 61.625 170.316406 60.316406 C 170.316406 59.003906 169.234375 57.933594 167.886719 57.933594 C 166.554688 57.933594 165.457031 59.003906 165.457031 60.316406 C 165.457031 60.398438 165.457031 60.46875 165.46875 60.550781 Z M 155.871094 60.316406 C 155.871094 59.003906 154.789062 57.933594 153.453125 57.933594 C 152.109375 57.933594 151.023438 59.003906 151.023438 60.316406 C 151.023438 61.625 152.109375 62.683594 153.453125 62.683594 C 154.789062 62.683594 155.871094 61.625 155.871094 60.316406 Z M 156.289062 38.6875 C 171.390625 38.6875 183.628906 48.871094 183.628906 61.410156 C 183.628906 73.960938 171.390625 84.144531 156.289062 84.144531 C 153.265625 84.144531 150.371094 83.726562 147.65625 82.976562 L 139.234375 89.121094 L 134.6875 92.445312 L 135.566406 88.753906 L 138.066406 78.355469 C 132.460938 74.199219 128.933594 68.152344 128.933594 61.410156 C 128.933594 48.871094 141.175781 38.6875 156.289062 38.6875 Z M 156.289062 38.6875 " fill-opacity="1" fill-rule="nonzero"/><path fill="#d6eae8" d="M 138.507812 99.433594 C 139.914062 99.433594 141.046875 100.554688 141.046875 101.921875 C 141.046875 103.292969 139.914062 104.414062 138.507812 104.414062 C 137.105469 104.414062 135.960938 103.292969 135.960938 101.921875 C 135.960938 100.554688 137.105469 99.433594 138.507812 99.433594 Z M 138.507812 99.433594 " fill-opacity="1" fill-rule="nonzero"/><path fill="#e7f2f1" d="M 101.117188 112.890625 C 102.519531 112.890625 103.652344 114 103.652344 115.378906 C 103.652344 116.75 102.519531 117.867188 101.117188 117.867188 C 99.710938 117.867188 98.566406 116.75 98.566406 115.378906 C 98.566406 114 99.710938 112.890625 101.117188 112.890625 Z M 101.117188 112.890625 " fill-opacity="1" fill-rule="nonzero"/><path fill="#6fceae" d="M 89.515625 114.546875 L 79.609375 117.953125 C 76.238281 125.0625 68.449219 130.148438 59.925781 130.148438 C 48.195312 130.148438 38.691406 120.847656 38.691406 109.378906 C 38.691406 97.910156 48.195312 88.609375 59.925781 88.609375 C 71.414062 88.609375 80.8125 97.625 81.167969 108.792969 Z M 89.515625 114.546875 " fill-opacity="1" fill-rule="nonzero"/><path fill="#d6eae8" d="M 117.074219 140.386719 L 117.074219 145.855469 C 117.074219 145.855469 107.664062 140.386719 97.007812 140.386719 C 96.925781 140.386719 96.828125 140.386719 96.746094 140.386719 C 86.230469 140.484375 78.90625 145.855469 78.90625 145.855469 C 78.539062 143.414062 77.488281 141.589844 75.773438 140.386719 C 75.773438 140.386719 83.824219 134.921875 95.363281 134.921875 C 106.890625 134.921875 117.074219 140.386719 117.074219 140.386719 Z M 117.074219 140.386719 " fill-opacity="1" fill-rule="nonzero"/><path fill="#c3ddda" d="M 137.140625 140.386719 C 126.480469 140.386719 117.074219 145.855469 117.074219 145.855469 L 117.074219 140.386719 C 117.074219 140.386719 127.253906 134.921875 138.792969 134.921875 C 138.867188 134.921875 138.9375 134.921875 139.007812 134.921875 L 139.820312 140.386719 L 139.832031 140.507812 C 138.960938 140.425781 138.066406 140.386719 137.140625 140.386719 Z M 137.140625 140.386719 " fill-opacity="1" fill-rule="nonzero"/><path fill="#e15c63" d="M 109.070312 77.808594 C 112.976562 77.808594 116.144531 80.90625 116.144531 84.738281 C 116.144531 86.261719 115.035156 88.777344 113.679688 91.242188 C 111.644531 94.980469 109.070312 98.648438 109.070312 98.648438 C 109.070312 98.648438 105.273438 93.242188 103.234375 88.847656 C 102.496094 87.238281 101.984375 85.761719 101.984375 84.738281 C 101.984375 80.90625 105.152344 77.808594 109.070312 77.808594 Z M 111.605469 84.738281 C 111.605469 83.359375 110.476562 82.25 109.070312 82.25 C 107.664062 82.25 106.523438 83.359375 106.523438 84.738281 C 106.523438 86.109375 107.664062 87.226562 109.070312 87.226562 C 110.476562 87.226562 111.605469 86.109375 111.605469 84.738281 Z M 111.605469 84.738281 " fill-opacity="1" fill-rule="nonzero"/><path fill="#e15c63" d="M 138.507812 94.992188 C 142.414062 94.992188 145.582031 98.101562 145.582031 101.921875 C 145.582031 105.746094 138.507812 115.832031 138.507812 115.832031 C 138.507812 115.832031 131.421875 105.746094 131.421875 101.921875 C 131.421875 98.101562 134.589844 94.992188 138.507812 94.992188 Z M 141.046875 101.921875 C 141.046875 100.554688 139.914062 99.433594 138.507812 99.433594 C 137.105469 99.433594 135.960938 100.554688 135.960938 101.921875 C 135.960938 103.292969 137.105469 104.414062 138.507812 104.414062 C 139.914062 104.414062 141.046875 103.292969 141.046875 101.921875 Z M 141.046875 101.921875 " fill-opacity="1" fill-rule="nonzero"/><path fill="#e15c63" d="M 101.117188 108.449219 C 105.023438 108.449219 108.191406 111.546875 108.191406 115.378906 C 108.191406 119.203125 101.117188 129.289062 101.117188 129.289062 C 101.117188 129.289062 94.03125 119.203125 94.03125 115.378906 C 94.03125 111.546875 97.199219 108.449219 101.117188 108.449219 Z M 103.652344 115.378906 C 103.652344 114 102.519531 112.890625 101.117188 112.890625 C 99.710938 112.890625 98.566406 114 98.566406 115.378906 C 98.566406 116.75 99.710938 117.867188 101.117188 117.867188 C 102.519531 117.867188 103.652344 116.75 103.652344 115.378906 Z M 103.652344 115.378906 " fill-opacity="1" fill-rule="nonzero"/><path fill="#d6eae8" d="M 138.507812 94.992188 C 134.589844 94.992188 131.421875 98.101562 131.421875 101.921875 C 131.421875 105.746094 138.507812 115.832031 138.507812 115.832031 C 138.507812 115.832031 145.582031 105.746094 145.582031 101.921875 C 145.582031 98.101562 142.414062 94.992188 138.507812 94.992188 Z M 150.226562 92.683594 L 157.550781 135.503906 L 157.550781 135.515625 C 156.679688 135.601562 155.824219 135.730469 154.980469 135.898438 L 138.507812 131.503906 L 139.007812 134.921875 C 138.9375 134.921875 138.867188 134.921875 138.792969 134.921875 C 127.253906 134.921875 117.074219 140.386719 117.074219 140.386719 L 117.074219 92.683594 C 117.074219 92.683594 124.695312 88.703125 133.949219 88.703125 C 134.496094 88.703125 135.042969 88.714844 135.566406 88.753906 L 134.6875 92.445312 L 139.234375 89.121094 C 145.75 90.144531 150.226562 92.683594 150.226562 92.683594 Z M 150.226562 92.683594 " fill-opacity="1" fill-rule="nonzero"/><path fill="#3a322b" d="M 153.378906 63.867188 L 153.378906 73.109375 C 153.378906 73.769531 153.910156 74.300781 154.570312 74.300781 C 155.226562 74.300781 155.761719 73.769531 155.761719 73.109375 L 155.761719 63.03125 C 156.460938 62.453125 156.929688 61.628906 157.03125 60.683594 C 157.144531 60.523438 157.472656 60.160156 158.191406 60.160156 C 159.8125 60.160156 160.027344 60.957031 160.046875 61.277344 L 160.046875 73.113281 C 160.046875 73.769531 160.578125 74.300781 161.238281 74.300781 C 161.894531 74.300781 162.425781 73.769531 162.425781 73.113281 L 162.425781 61.277344 C 162.425781 60.304688 161.667969 57.777344 158.191406 57.777344 C 157.460938 57.777344 156.855469 57.953125 156.359375 58.210938 C 155.703125 57.328125 154.648438 56.746094 153.453125 56.746094 C 151.457031 56.746094 149.835938 58.347656 149.835938 60.3125 C 149.835938 62.25 151.417969 63.828125 153.378906 63.867188 Z M 153.453125 59.128906 C 154.132812 59.128906 154.6875 59.65625 154.6875 60.308594 C 154.6875 60.960938 154.132812 61.492188 153.453125 61.492188 C 152.769531 61.492188 152.21875 60.960938 152.21875 60.308594 C 152.21875 59.65625 152.769531 59.128906 153.453125 59.128906 Z M 153.453125 59.128906 " fill-opacity="1" fill-rule="nonzero"/><path fill="#3a322b" d="M 139.882812 58.222656 C 140.207031 58.203125 140.507812 58.050781 140.71875 57.800781 L 144.628906 53.15625 L 144.628906 70.390625 C 144.628906 70.433594 144.648438 70.46875 144.652344 70.507812 C 144.648438 70.585938 144.628906 70.660156 144.628906 70.738281 C 144.628906 72.703125 146.253906 74.300781 148.246094 74.300781 C 150.242188 74.300781 151.863281 72.703125 151.863281 70.738281 C 151.863281 68.773438 150.242188 67.175781 148.246094 67.175781 C 147.8125 67.175781 147.398438 67.261719 147.011719 67.402344 L 147.011719 49.890625 C 147.011719 49.390625 146.699219 48.941406 146.230469 48.773438 C 145.761719 48.597656 145.230469 48.742188 144.910156 49.125 L 139.699219 55.316406 L 136.757812 52.613281 C 136.273438 52.167969 135.519531 52.199219 135.074219 52.683594 C 134.628906 53.167969 134.660156 53.921875 135.144531 54.367188 L 139.003906 57.914062 C 139.238281 58.128906 139.546875 58.234375 139.882812 58.222656 Z M 148.246094 69.554688 C 148.929688 69.554688 149.480469 70.085938 149.480469 70.738281 C 149.480469 71.390625 148.929688 71.917969 148.246094 71.917969 C 147.566406 71.917969 147.011719 71.390625 147.011719 70.738281 C 147.011719 70.085938 147.566406 69.554688 148.246094 69.554688 Z M 148.246094 69.554688 " fill-opacity="1" fill-rule="nonzero"/><path fill="#3a322b" d="M 165.464844 74.300781 L 174.046875 74.300781 C 174.707031 74.300781 175.238281 73.769531 175.238281 73.109375 L 175.238281 60.308594 C 175.238281 59.652344 174.707031 59.117188 174.046875 59.117188 C 173.390625 59.117188 172.855469 59.652344 172.855469 60.308594 L 172.855469 71.917969 L 166.65625 71.917969 L 166.65625 69.273438 C 166.6875 68.789062 167.820312 67.414062 168.789062 67.203125 C 169.222656 67.109375 169.570312 66.777344 169.683594 66.347656 C 169.796875 65.914062 169.660156 65.457031 169.332031 65.15625 C 168.835938 64.707031 168.417969 64.277344 168.070312 63.855469 C 169.980469 63.761719 171.503906 62.214844 171.503906 60.3125 C 171.503906 58.347656 169.882812 56.746094 167.890625 56.746094 C 165.894531 56.746094 164.273438 58.347656 164.273438 60.3125 C 164.273438 62.265625 164.976562 63.980469 166.523438 65.714844 C 165.265625 66.632812 164.273438 68.082031 164.273438 69.265625 L 164.273438 73.113281 C 164.273438 73.769531 164.804688 74.300781 165.464844 74.300781 Z M 167.890625 59.128906 C 168.570312 59.128906 169.125 59.65625 169.125 60.308594 C 169.125 60.960938 168.570312 61.492188 167.890625 61.492188 C 167.207031 61.492188 166.65625 60.960938 166.65625 60.308594 C 166.65625 59.65625 167.207031 59.128906 167.890625 59.128906 Z M 167.890625 59.128906 " fill-opacity="1" fill-rule="nonzero"/><path fill="#3a322b" d="M 83.589844 67.5 C 84.25 67.5 84.78125 66.96875 84.78125 66.308594 L 84.78125 58.667969 L 90.566406 58.667969 C 91.222656 58.667969 91.757812 58.136719 91.757812 57.476562 C 91.757812 56.816406 91.222656 56.285156 90.566406 56.285156 L 84.78125 56.285156 L 84.78125 49.835938 L 90.566406 49.835938 C 91.222656 49.835938 91.757812 49.300781 91.757812 48.644531 C 91.757812 47.984375 91.222656 47.453125 90.566406 47.453125 L 83.589844 47.453125 C 82.933594 47.453125 82.398438 47.984375 82.398438 48.644531 L 82.398438 66.308594 C 82.398438 66.96875 82.933594 67.5 83.589844 67.5 Z M 83.589844 67.5 " fill-opacity="1" fill-rule="nonzero"/><path fill="#3a322b" d="M 56.863281 101.613281 C 57.523438 101.613281 58.054688 101.082031 58.054688 100.421875 C 58.054688 99.765625 57.523438 99.230469 56.863281 99.230469 L 49.796875 99.230469 C 49.140625 99.230469 48.605469 99.765625 48.605469 100.421875 L 48.605469 118.320312 C 48.605469 118.976562 49.140625 119.511719 49.796875 119.511719 L 56.863281 119.511719 C 57.523438 119.511719 58.054688 118.976562 58.054688 118.320312 C 58.054688 117.660156 57.523438 117.128906 56.863281 117.128906 L 50.988281 117.128906 L 50.988281 110.5625 L 56.863281 110.5625 C 57.523438 110.5625 58.054688 110.027344 58.054688 109.371094 C 58.054688 108.710938 57.523438 108.179688 56.863281 108.179688 L 50.988281 108.179688 L 50.988281 101.613281 Z M 56.863281 101.613281 " fill-opacity="1" fill-rule="nonzero"/><path fill="#3a322b" d="M 94.738281 67.5 C 95.394531 67.5 95.929688 66.96875 95.929688 66.308594 L 95.929688 58.667969 L 99.121094 58.667969 L 103.304688 66.851562 C 103.515625 67.261719 103.933594 67.5 104.367188 67.5 C 104.550781 67.5 104.734375 67.457031 104.90625 67.371094 C 105.492188 67.070312 105.726562 66.351562 105.425781 65.765625 L 101.640625 58.359375 C 103.90625 57.617188 105.554688 55.535156 105.554688 53.0625 C 105.554688 49.96875 102.996094 47.453125 99.851562 47.453125 L 94.738281 47.453125 C 94.082031 47.453125 93.546875 47.984375 93.546875 48.644531 L 93.546875 66.308594 C 93.546875 66.96875 94.082031 67.5 94.738281 67.5 Z M 95.929688 49.835938 L 99.851562 49.835938 C 101.683594 49.835938 103.175781 51.28125 103.175781 53.0625 C 103.175781 54.839844 101.683594 56.285156 99.851562 56.285156 L 95.929688 56.285156 Z M 95.929688 49.835938 " fill-opacity="1" fill-rule="nonzero"/><path fill="#3a322b" d="M 72.222656 99.230469 C 71.5625 99.230469 71.03125 99.765625 71.03125 100.421875 L 71.03125 113.449219 L 64.007812 99.875 C 63.753906 99.390625 63.199219 99.132812 62.667969 99.265625 C 62.132812 99.394531 61.757812 99.875 61.757812 100.425781 L 61.757812 118.339844 C 61.757812 119 62.292969 119.53125 62.949219 119.53125 C 63.605469 119.53125 64.140625 119 64.140625 118.339844 L 64.140625 105.316406 L 71.164062 118.886719 C 71.371094 119.289062 71.78125 119.527344 72.21875 119.527344 C 72.3125 119.527344 72.40625 119.519531 72.5 119.496094 C 73.035156 119.367188 73.410156 118.886719 73.410156 118.339844 L 73.410156 100.421875 C 73.410156 99.765625 72.878906 99.230469 72.222656 99.230469 Z M 72.222656 99.230469 " fill-opacity="1" fill-rule="nonzero"/><path fill="#3a322b" d="M 90.457031 160.09375 L 85.253906 160.09375 L 85.253906 154.339844 C 85.253906 153.683594 84.71875 153.148438 84.0625 153.148438 C 83.40625 153.148438 82.871094 153.683594 82.871094 154.339844 L 82.871094 160.09375 L 77.667969 160.09375 C 77.011719 160.09375 76.476562 160.625 76.476562 161.285156 L 76.476562 168.28125 C 76.476562 168.941406 77.011719 169.472656 77.667969 169.472656 L 82.871094 169.472656 L 82.871094 176.710938 C 82.871094 177.371094 83.40625 177.902344 84.0625 177.902344 C 84.71875 177.902344 85.253906 177.371094 85.253906 176.710938 L 85.253906 169.472656 L 90.457031 169.472656 C 91.113281 169.472656 91.648438 168.941406 91.648438 168.28125 L 91.648438 161.285156 C 91.648438 160.628906 91.113281 160.09375 90.457031 160.09375 Z M 78.859375 167.09375 L 78.859375 162.476562 L 82.871094 162.476562 L 82.871094 167.09375 Z M 89.265625 167.09375 L 85.253906 167.09375 L 85.253906 162.476562 L 89.265625 162.476562 Z M 89.265625 167.09375 " fill-opacity="1" fill-rule="nonzero"/><path fill="#3a322b" d="M 93.527344 160.941406 C 93.527344 161.601562 94.0625 162.132812 94.71875 162.132812 L 95.464844 162.132812 C 96.777344 165.648438 98.210938 168.636719 99.792969 171.089844 C 98.464844 172.902344 97.046875 174.355469 95.515625 175.421875 C 94.976562 175.800781 94.84375 176.542969 95.21875 177.082031 C 95.449219 177.414062 95.820312 177.59375 96.199219 177.59375 C 96.433594 177.59375 96.671875 177.523438 96.878906 177.378906 C 98.4375 176.289062 99.886719 174.878906 101.242188 173.140625 C 102.59375 174.878906 104.042969 176.289062 105.605469 177.378906 C 105.8125 177.523438 106.050781 177.59375 106.285156 177.59375 C 106.660156 177.59375 107.03125 177.414062 107.261719 177.082031 C 107.636719 176.542969 107.507812 175.800781 106.964844 175.421875 C 105.433594 174.355469 104.015625 172.902344 102.6875 171.089844 C 104.273438 168.636719 105.707031 165.648438 107.015625 162.132812 L 108.246094 162.132812 C 108.902344 162.132812 109.4375 161.601562 109.4375 160.941406 C 109.4375 160.28125 108.902344 159.75 108.246094 159.75 L 94.71875 159.75 C 94.0625 159.75 93.527344 160.28125 93.527344 160.941406 Z M 101.242188 168.886719 C 100.089844 166.964844 99.019531 164.71875 98.015625 162.132812 L 104.46875 162.132812 C 103.464844 164.71875 102.390625 166.964844 101.242188 168.886719 Z M 101.242188 168.886719 " fill-opacity="1" fill-rule="nonzero"/><path fill="#3a322b" d="M 98.269531 154.816406 L 100.554688 157.671875 C 100.789062 157.964844 101.136719 158.117188 101.484375 158.117188 C 101.746094 158.117188 102.007812 158.03125 102.226562 157.855469 C 102.738281 157.445312 102.824219 156.695312 102.414062 156.179688 L 100.128906 153.328125 C 99.71875 152.816406 98.96875 152.730469 98.457031 153.140625 C 97.945312 153.550781 97.859375 154.300781 98.269531 154.816406 Z M 98.269531 154.816406 " fill-opacity="1" fill-rule="nonzero"/><path fill="#3a322b" d="M 152.636719 153.632812 C 153.292969 153.632812 153.828125 153.101562 153.828125 152.441406 C 153.828125 151.785156 153.292969 151.253906 152.636719 151.253906 L 148.363281 151.253906 L 148.363281 146.824219 C 148.363281 146.167969 147.828125 145.632812 147.171875 145.632812 C 146.515625 145.632812 145.980469 146.167969 145.980469 146.824219 L 145.980469 151.253906 L 141.707031 151.253906 C 141.046875 151.253906 140.515625 151.785156 140.515625 152.441406 C 140.515625 153.101562 141.046875 153.632812 141.707031 153.632812 Z M 152.636719 153.632812 " fill-opacity="1" fill-rule="nonzero"/><path fill="#3a322b" d="M 148.003906 165.414062 C 150.851562 165.414062 153.171875 163.132812 153.171875 160.328125 C 153.171875 157.523438 150.851562 155.242188 148.003906 155.242188 C 145.152344 155.242188 142.832031 157.523438 142.832031 160.328125 C 142.832031 163.132812 145.152344 165.414062 148.003906 165.414062 Z M 148.003906 157.625 C 149.542969 157.625 150.792969 158.839844 150.792969 160.328125 C 150.792969 161.820312 149.542969 163.035156 148.003906 163.035156 C 146.464844 163.035156 145.214844 161.820312 145.214844 160.328125 C 145.214844 158.839844 146.464844 157.625 148.003906 157.625 Z M 148.003906 157.625 " fill-opacity="1" fill-rule="nonzero"/><path fill="#3a322b" d="M 162.84375 157.953125 L 158.261719 157.953125 L 158.261719 149.632812 C 158.261719 148.972656 157.726562 148.441406 157.070312 148.441406 C 156.414062 148.441406 155.878906 148.972656 155.878906 149.632812 L 155.878906 167.769531 C 155.878906 168.429688 156.414062 168.960938 157.070312 168.960938 C 157.726562 168.960938 158.261719 168.429688 158.261719 167.769531 L 158.261719 160.335938 L 162.84375 160.335938 C 163.5 160.335938 164.035156 159.804688 164.035156 159.144531 C 164.035156 158.488281 163.5 157.953125 162.84375 157.953125 Z M 162.84375 157.953125 " fill-opacity="1" fill-rule="nonzero"/><path fill="#3a322b" d="M 154.902344 171.953125 L 145.414062 171.953125 L 145.414062 167.769531 C 145.414062 167.113281 144.882812 166.578125 144.222656 166.578125 C 143.566406 166.578125 143.03125 167.113281 143.03125 167.769531 L 143.03125 173.144531 C 143.03125 173.800781 143.566406 174.335938 144.222656 174.335938 L 154.902344 174.335938 C 155.5625 174.335938 156.09375 173.800781 156.09375 173.144531 C 156.09375 172.484375 155.5625 171.953125 154.902344 171.953125 Z M 154.902344 171.953125 " fill-opacity="1" fill-rule="nonzero"/><path fill="#3a322b" d="M 177.925781 148.441406 L 166.59375 148.441406 C 165.933594 148.441406 165.402344 148.972656 165.402344 149.632812 C 165.402344 150.292969 165.933594 150.824219 166.59375 150.824219 L 176.734375 150.824219 L 176.734375 156.140625 C 176.734375 156.796875 177.269531 157.332031 177.925781 157.332031 C 178.582031 157.332031 179.117188 156.796875 179.117188 156.140625 L 179.117188 149.632812 C 179.117188 148.972656 178.585938 148.441406 177.925781 148.441406 Z M 177.925781 148.441406 " fill-opacity="1" fill-rule="nonzero"/><path fill="#3a322b" d="M 177.925781 159.136719 L 166.742188 159.136719 C 166.085938 159.136719 165.550781 159.671875 165.550781 160.328125 C 165.550781 160.988281 166.085938 161.519531 166.742188 161.519531 L 177.925781 161.519531 C 178.582031 161.519531 179.117188 160.988281 179.117188 160.328125 C 179.117188 159.671875 178.585938 159.136719 177.925781 159.136719 Z M 177.925781 159.136719 " fill-opacity="1" fill-rule="nonzero"/><path fill="#3a322b" d="M 177.925781 163.03125 L 166.59375 163.03125 C 165.933594 163.03125 165.402344 163.566406 165.402344 164.222656 C 165.402344 164.882812 165.933594 165.414062 166.59375 165.414062 L 176.734375 165.414062 L 176.734375 166.925781 L 166.59375 166.925781 C 165.933594 166.925781 165.402344 167.457031 165.402344 168.117188 L 165.402344 173.144531 C 165.402344 173.804688 165.933594 174.335938 166.59375 174.335938 L 177.925781 174.335938 C 178.582031 174.335938 179.117188 173.804688 179.117188 173.144531 C 179.117188 172.488281 178.582031 171.953125 177.925781 171.953125 L 167.78125 171.953125 L 167.78125 169.308594 L 177.925781 169.308594 C 178.582031 169.308594 179.117188 168.777344 179.117188 168.117188 L 179.117188 164.222656 C 179.117188 163.566406 178.585938 163.03125 177.925781 163.03125 Z M 177.925781 163.03125 " fill-opacity="1" fill-rule="nonzero"/><path fill="#3a322b" d="M 138.503906 105.601562 C 140.5625 105.601562 142.238281 103.953125 142.238281 101.925781 C 142.238281 99.898438 140.5625 98.246094 138.503906 98.246094 C 136.445312 98.246094 134.773438 99.898438 134.773438 101.925781 C 134.773438 103.953125 136.445312 105.601562 138.503906 105.601562 Z M 138.503906 100.628906 C 139.25 100.628906 139.855469 101.210938 139.855469 101.925781 C 139.855469 102.640625 139.25 103.222656 138.503906 103.222656 C 137.761719 103.222656 137.152344 102.640625 137.152344 101.925781 C 137.152344 101.210938 137.761719 100.628906 138.503906 100.628906 Z M 138.503906 100.628906 " fill-opacity="1" fill-rule="nonzero"/><path fill="#3a322b" d="M 137.53125 116.519531 C 137.753906 116.835938 138.117188 117.023438 138.503906 117.023438 C 138.890625 117.023438 139.257812 116.835938 139.480469 116.519531 C 140.226562 115.453125 146.777344 106.007812 146.777344 101.925781 C 146.777344 97.449219 143.066406 93.804688 138.503906 93.804688 C 133.945312 93.804688 130.234375 97.449219 130.234375 101.925781 C 130.234375 106.007812 136.785156 115.453125 137.53125 116.519531 Z M 138.503906 96.1875 C 141.753906 96.1875 144.394531 98.761719 144.394531 101.925781 C 144.394531 104.144531 141.101562 109.824219 138.503906 113.722656 C 135.90625 109.824219 132.617188 104.144531 132.617188 101.925781 C 132.617188 98.761719 135.257812 96.1875 138.503906 96.1875 Z M 138.503906 96.1875 " fill-opacity="1" fill-rule="nonzero"/><path fill="#3a322b" d="M 112.800781 84.734375 C 112.800781 82.707031 111.125 81.058594 109.066406 81.058594 C 107.007812 81.058594 105.332031 82.707031 105.332031 84.734375 C 105.332031 86.761719 107.007812 88.414062 109.066406 88.414062 C 111.125 88.414062 112.800781 86.761719 112.800781 84.734375 Z M 107.71875 84.734375 C 107.71875 84.019531 108.324219 83.441406 109.070312 83.441406 C 109.8125 83.441406 110.421875 84.019531 110.421875 84.734375 C 110.421875 85.453125 109.8125 86.03125 109.070312 86.03125 C 108.324219 86.03125 107.71875 85.453125 107.71875 84.734375 Z M 107.71875 84.734375 " fill-opacity="1" fill-rule="nonzero"/><path fill="#3a322b" d="M 104.847656 115.378906 C 104.847656 113.351562 103.171875 111.699219 101.113281 111.699219 C 99.054688 111.699219 97.378906 113.351562 97.378906 115.378906 C 97.378906 117.40625 99.054688 119.054688 101.113281 119.054688 C 103.171875 119.054688 104.847656 117.40625 104.847656 115.378906 Z M 99.761719 115.378906 C 99.761719 114.664062 100.367188 114.082031 101.113281 114.082031 C 101.859375 114.082031 102.464844 114.664062 102.464844 115.378906 C 102.464844 116.09375 101.859375 116.675781 101.113281 116.675781 C 100.367188 116.675781 99.761719 116.09375 99.761719 115.378906 Z M 99.761719 115.378906 " fill-opacity="1" fill-rule="nonzero"/><path fill="#3a322b" d="M 101.113281 130.476562 C 101.5 130.476562 101.863281 130.289062 102.085938 129.96875 C 102.835938 128.90625 109.386719 119.460938 109.386719 115.375 C 109.386719 110.898438 105.675781 107.257812 101.113281 107.257812 C 96.550781 107.257812 92.839844 110.902344 92.839844 115.375 C 92.839844 119.460938 99.390625 128.90625 100.136719 129.96875 C 100.363281 130.289062 100.726562 130.476562 101.113281 130.476562 Z M 101.113281 109.640625 C 104.363281 109.640625 107.003906 112.214844 107.003906 115.375 C 107.003906 117.597656 103.710938 123.277344 101.113281 127.175781 C 98.515625 123.277344 95.222656 117.597656 95.222656 115.375 C 95.222656 112.214844 97.867188 109.640625 101.113281 109.640625 Z M 101.113281 109.640625 " fill-opacity="1" fill-rule="nonzero"/><g clip-path="url(#75d49fbb85)"><path fill="#3a322b" d="M 91.351562 77.398438 L 95.753906 84.628906 C 95.972656 84.988281 96.359375 85.199219 96.773438 85.199219 C 96.84375 85.199219 96.917969 85.191406 96.988281 85.179688 C 97.476562 85.089844 97.855469 84.707031 97.945312 84.21875 L 99.367188 76.308594 C 107.523438 73.492188 112.953125 66.011719 112.953125 57.476562 C 112.953125 46.460938 103.808594 37.5 92.5625 37.5 C 81.316406 37.5 72.167969 46.460938 72.167969 57.476562 C 72.171875 68.152344 80.542969 76.785156 91.351562 77.398438 Z M 92.5625 39.882812 C 102.492188 39.882812 110.574219 47.773438 110.574219 57.476562 C 110.574219 65.199219 105.507812 71.945312 97.972656 74.261719 C 97.546875 74.394531 97.230469 74.75 97.152344 75.1875 L 96.15625 80.710938 L 93.054688 75.617188 C 92.84375 75.273438 92.472656 75.058594 92.070312 75.046875 C 82.246094 74.789062 74.554688 67.070312 74.554688 57.476562 C 74.550781 47.773438 82.632812 39.882812 92.5625 39.882812 Z M 92.5625 39.882812 " fill-opacity="1" fill-rule="nonzero"/></g><g clip-path="url(#94feb46a7a)"><path fill="#3a322b" d="M 160.320312 134.171875 C 159.730469 134.171875 159.136719 134.21875 158.546875 134.257812 L 151.398438 92.480469 C 151.339844 92.125 151.125 91.820312 150.8125 91.644531 C 150.648438 91.550781 147.277344 89.671875 142.136719 88.480469 L 147.902344 84.277344 C 150.625 84.976562 153.441406 85.332031 156.285156 85.332031 C 172.019531 85.332031 184.824219 74.605469 184.824219 61.417969 C 184.824219 48.226562 172.019531 37.5 156.285156 37.5 C 140.546875 37.5 127.746094 48.226562 127.746094 61.417969 C 127.746094 68.015625 131.007812 74.320312 136.726562 78.832031 L 134.640625 87.53125 C 134.40625 87.527344 134.183594 87.515625 133.949219 87.515625 C 125.828125 87.515625 119.023438 90.433594 117.074219 91.355469 C 116.691406 91.171875 116.097656 90.910156 115.355469 90.609375 C 116.480469 88.382812 117.339844 86.210938 117.339844 84.734375 C 117.339844 80.257812 113.628906 76.617188 109.070312 76.617188 C 104.507812 76.617188 100.796875 80.261719 100.796875 84.734375 C 100.796875 85.507812 101.035156 86.476562 101.421875 87.542969 C 101.011719 87.53125 100.605469 87.515625 100.207031 87.515625 C 90.746094 87.515625 83.640625 91.476562 83.339844 91.644531 C 83.027344 91.820312 82.8125 92.125 82.753906 92.480469 L 81.089844 102.199219 C 77.988281 93.636719 69.585938 87.417969 59.917969 87.417969 C 47.558594 87.421875 37.5 97.273438 37.5 109.378906 C 37.5 121.488281 47.558594 131.339844 59.917969 131.339844 C 66.679688 131.339844 73.179688 128.253906 77.480469 123.308594 L 74.59375 140.1875 C 74.574219 140.316406 74.578125 140.445312 74.597656 140.570312 C 74.601562 140.601562 74.617188 140.628906 74.621094 140.660156 C 74.648438 140.765625 74.6875 140.867188 74.738281 140.960938 C 74.757812 140.996094 74.78125 141.03125 74.804688 141.066406 C 74.871094 141.164062 74.949219 141.246094 75.042969 141.316406 C 75.058594 141.332031 75.066406 141.351562 75.085938 141.363281 C 76.542969 142.382812 77.40625 143.910156 77.726562 146.035156 C 77.789062 146.445312 78.0625 146.796875 78.449219 146.953125 C 78.59375 147.015625 78.75 147.046875 78.902344 147.046875 C 79.152344 147.046875 79.402344 146.96875 79.609375 146.816406 C 79.671875 146.769531 85.460938 142.609375 93.96875 141.746094 L 91.578125 144.460938 C 79.984375 145.183594 70.972656 154.535156 70.972656 165.964844 C 70.972656 177.863281 80.855469 187.542969 93 187.542969 C 105.148438 187.542969 115.027344 177.863281 115.027344 165.964844 C 115.027344 156.859375 109.210938 148.773438 100.492188 145.6875 L 98.628906 141.628906 C 108.15625 142.132812 116.390625 146.835938 116.480469 146.886719 C 116.507812 146.902344 116.539062 146.910156 116.570312 146.921875 C 116.601562 146.9375 116.632812 146.949219 116.667969 146.964844 C 116.933594 147.0625 117.222656 147.0625 117.488281 146.964844 C 117.519531 146.949219 117.550781 146.9375 117.585938 146.921875 C 117.613281 146.90625 117.644531 146.902344 117.675781 146.886719 C 117.765625 146.832031 126.949219 141.582031 137.144531 141.582031 C 137.691406 141.582031 138.242188 141.621094 138.796875 141.652344 L 139.15625 144.082031 C 135.242188 148.816406 133.097656 154.746094 133.097656 160.835938 C 133.097656 175.535156 145.308594 187.496094 160.320312 187.496094 C 175.335938 187.496094 187.546875 175.535156 187.546875 160.835938 C 187.546875 146.132812 175.335938 134.171875 160.320312 134.171875 Z M 130.125 61.417969 C 130.125 49.542969 141.859375 39.882812 156.285156 39.882812 C 170.707031 39.882812 182.441406 49.542969 182.441406 61.417969 C 182.441406 73.289062 170.707031 82.949219 156.285156 82.949219 C 153.460938 82.949219 150.664062 82.574219 147.976562 81.832031 C 147.628906 81.734375 147.25 81.804688 146.957031 82.019531 L 136.597656 89.570312 L 139.222656 78.636719 C 139.335938 78.171875 139.15625 77.6875 138.773438 77.402344 C 133.277344 73.320312 130.125 67.492188 130.125 61.417969 Z M 134.070312 89.902344 L 133.527344 92.160156 C 133.410156 92.644531 133.609375 93.152344 134.023438 93.429688 C 134.222656 93.5625 134.453125 93.628906 134.683594 93.628906 C 134.929688 93.628906 135.179688 93.550781 135.386719 93.398438 L 139.519531 90.386719 C 144.285156 91.203125 147.890625 92.832031 149.152344 93.460938 L 156.175781 134.515625 C 155.789062 134.574219 155.402344 134.609375 155.019531 134.679688 L 138.8125 130.355469 C 138.425781 130.246094 138.011719 130.347656 137.714844 130.617188 C 137.414062 130.882812 137.269531 131.28125 137.328125 131.679688 L 137.636719 133.761719 C 129.113281 134.015625 121.570312 136.980469 118.269531 138.484375 L 118.269531 93.429688 C 120.234375 92.527344 126.589844 89.898438 133.949219 89.898438 C 133.988281 89.898438 134.027344 89.898438 134.070312 89.902344 Z M 109.070312 79 C 112.316406 79 114.957031 81.574219 114.957031 84.734375 C 114.957031 86.957031 111.664062 92.636719 109.070312 96.535156 C 106.472656 92.636719 103.179688 86.957031 103.179688 84.734375 C 103.175781 81.574219 105.820312 79 109.070312 79 Z M 59.917969 128.960938 C 48.871094 128.960938 39.882812 120.175781 39.882812 109.378906 C 39.882812 98.585938 48.871094 89.800781 59.917969 89.800781 C 70.648438 89.800781 79.648438 98.339844 79.980469 108.832031 C 79.984375 108.867188 80.003906 108.894531 80.007812 108.929688 C 80.019531 109.042969 80.050781 109.148438 80.09375 109.25 C 80.117188 109.304688 80.136719 109.359375 80.167969 109.410156 C 80.234375 109.523438 80.324219 109.617188 80.429688 109.703125 C 80.453125 109.722656 80.464844 109.753906 80.492188 109.773438 L 86.890625 114.1875 L 79.21875 116.824219 C 79.167969 116.839844 79.128906 116.878906 79.082031 116.902344 C 79.007812 116.941406 78.933594 116.976562 78.867188 117.027344 C 78.8125 117.074219 78.769531 117.128906 78.722656 117.179688 C 78.667969 117.242188 78.613281 117.304688 78.574219 117.378906 C 78.5625 117.402344 78.539062 117.414062 78.527344 117.4375 C 75.261719 124.328125 67.785156 128.960938 59.917969 128.960938 Z M 80.660156 118.847656 L 89.898438 115.675781 C 90.324219 115.527344 90.628906 115.15625 90.691406 114.710938 C 90.75 114.265625 90.558594 113.824219 90.1875 113.566406 L 82.472656 108.246094 L 85 93.464844 C 86.714844 92.609375 92.746094 89.898438 100.207031 89.898438 C 100.945312 89.898438 101.707031 89.933594 102.472656 89.988281 C 104.46875 94.105469 107.589844 98.613281 108.09375 99.328125 C 108.316406 99.648438 108.679688 99.835938 109.070312 99.835938 C 109.457031 99.835938 109.820312 99.648438 110.042969 99.328125 C 110.433594 98.773438 112.421875 95.90625 114.222656 92.71875 C 114.929688 93 115.496094 93.246094 115.886719 93.429688 L 115.886719 138.484375 C 112.4375 136.910156 104.359375 133.730469 95.363281 133.730469 C 87.097656 133.730469 80.613281 136.417969 77.367188 138.09375 Z M 77.765625 140.589844 C 80.441406 139.125 86.960938 136.113281 95.363281 136.113281 C 104.878906 136.113281 113.554688 139.992188 115.886719 141.125 L 115.886719 143.890625 C 112.605469 142.285156 105.222656 139.199219 97.011719 139.199219 C 96.894531 139.199219 96.785156 139.207031 96.675781 139.207031 C 96.652344 139.207031 96.632812 139.207031 96.609375 139.207031 C 88.5625 139.308594 82.386719 142.335938 79.683594 143.9375 C 79.273438 142.625 78.621094 141.515625 77.765625 140.589844 Z M 99.25 147.78125 C 107.265625 150.410156 112.648438 157.71875 112.648438 165.964844 C 112.648438 176.550781 103.835938 185.160156 93.003906 185.160156 C 82.167969 185.160156 73.355469 176.550781 73.355469 165.964844 C 73.355469 155.648438 81.628906 147.234375 92.1875 146.8125 C 92.511719 146.796875 92.820312 146.652344 93.035156 146.410156 L 96.433594 142.550781 L 98.542969 147.144531 C 98.679688 147.445312 98.933594 147.675781 99.25 147.78125 Z M 137.144531 139.199219 C 128.933594 139.199219 121.550781 142.285156 118.269531 143.886719 L 118.269531 141.125 C 120.53125 140.023438 128.789062 136.347656 137.984375 136.136719 L 138.441406 139.253906 C 138.007812 139.238281 137.574219 139.199219 137.144531 139.199219 Z M 160.320312 185.117188 C 146.625 185.117188 135.476562 174.222656 135.476562 160.835938 C 135.476562 155.132812 137.550781 149.585938 141.3125 145.214844 C 141.539062 144.953125 141.640625 144.605469 141.589844 144.265625 L 140.992188 140.214844 L 139.949219 133.125 L 154.671875 137.054688 C 154.847656 137.101562 155.035156 137.109375 155.214844 137.070312 C 156.902344 136.726562 158.621094 136.550781 160.324219 136.550781 C 174.023438 136.550781 185.167969 147.445312 185.167969 160.835938 C 185.167969 174.226562 174.023438 185.117188 160.320312 185.117188 Z M 160.320312 185.117188 " fill-opacity="1" fill-rule="nonzero"/></g><path fill="#ccefe8" d="M 285.117188 50.945312 C 286.441406 39.363281 297.980469 38.824219 297.980469 38.824219 C 323.804688 37.503906 322.195312 54.359375 314.710938 64.441406 L 314.949219 72.945312 L 311.316406 68.179688 C 309.316406 69.953125 307.167969 71.191406 305.125 71.582031 C 292.953125 73.917969 283.792969 62.527344 285.117188 50.945312 " fill-opacity="1" fill-rule="nonzero"/><path fill="#f29579" d="M 319.40625 57.921875 C 321.628906 53.15625 354.449219 55.542969 354.976562 56.332031 C 356.882812 59.191406 356.246094 72.671875 354.023438 74.574219 C 352.871094 75.5625 344.117188 75.917969 335.644531 75.691406 L 332.746094 81.242188 L 331.710938 75.542969 C 325.414062 75.230469 320.015625 74.582031 319.09375 73.621094 C 316.78125 71.214844 317.183594 62.683594 319.40625 57.921875 " fill-opacity="1" fill-rule="nonzero"/><path fill="#f7bcaa" d="M 322.640625 155.179688 L 316.761719 186.203125 L 314.699219 186.371094 C 314.699219 186.371094 312 163.640625 313.585938 154.683594 C 316.605469 153.355469 322.640625 155.179688 322.640625 155.179688 " fill-opacity="1" fill-rule="nonzero"/><path fill="#f7bcaa" d="M 316.128906 149.039062 C 316.128906 149.039062 316.128906 157.171875 316.289062 159.328125 C 315.492188 163.140625 306.523438 185.457031 306.523438 185.457031 L 304.855469 186.203125 C 304.855469 186.203125 303.902344 165.6875 307.234375 157.28125 C 311.046875 152.527344 316.128906 149.039062 316.128906 149.039062 " fill-opacity="1" fill-rule="nonzero"/><path fill="#3d3542" d="M 317.398438 182.800781 C 318.402344 184.960938 322.667969 185.253906 322.558594 186.621094 C 322.378906 187.128906 315.082031 186.820312 314.773438 186.652344 C 314.164062 186.308594 314.382812 183.21875 314.382812 183.21875 C 314.382812 183.21875 316.367188 183.882812 317.398438 182.800781 " fill-opacity="1" fill-rule="nonzero"/><path fill="#3d3542" d="M 307.472656 183.21875 C 307.472656 183.21875 310.523438 185.046875 312.636719 185.292969 C 314.75 185.539062 313.496094 186.453125 312.558594 186.703125 C 311.617188 186.945312 303.484375 186.832031 303.265625 186.371094 C 302.847656 185.480469 304.890625 182.890625 304.890625 182.890625 L 307.472656 183.21875 " fill-opacity="1" fill-rule="nonzero"/><path fill="#42756d" d="M 307.234375 157.28125 C 304.378906 144.453125 304.632812 136.148438 306.410156 129.449219 C 307.988281 129.632812 309.46875 130.054688 310.816406 130.585938 C 310.722656 129.730469 310.667969 129.242188 310.667969 129.242188 L 323.164062 127.789062 C 323.164062 127.789062 327.773438 138.410156 322.585938 156.328125 C 318.335938 157.546875 313.179688 157.828125 307.234375 157.28125 " fill-opacity="1" fill-rule="nonzero"/><path fill="#943e38" d="M 358.171875 131.6875 C 365.703125 132.984375 369.746094 133.195312 377.519531 133.101562 C 377.164062 140.484375 377.375 149.675781 375.324219 155.8125 C 376.53125 159.746094 377.433594 176.082031 374.722656 184.789062 C 374.421875 185.074219 372.917969 184.648438 372.917969 184.648438 C 372.917969 184.648438 370.507812 162.554688 368.554688 158.203125 C 366.59375 153.84375 366.199219 141.84375 366.199219 141.84375 C 366.199219 141.84375 366.082031 146.550781 359.890625 158.46875 C 362.046875 163.179688 363.046875 169.445312 359.371094 185.351562 C 358.917969 185.496094 357.214844 185.304688 357.214844 185.304688 C 357.214844 185.304688 355.59375 165.5625 354.101562 158.203125 C 354.613281 152.6875 356.394531 140.074219 358.171875 131.6875 " fill-opacity="1" fill-rule="nonzero"/><g clip-path="url(#92d1b10ace)"><path fill="#3d3542" d="M 375.011719 183.632812 C 375.894531 185.449219 378.332031 185.710938 378.238281 186.855469 C 378.078125 187.289062 372.917969 187.144531 372.648438 187 C 372.109375 186.714844 372.824219 183.996094 372.824219 183.996094 C 372.824219 183.996094 374.441406 184.851562 375.011719 183.632812 " fill-opacity="1" fill-rule="nonzero"/></g><g clip-path="url(#16f34bd35e)"><path fill="#3d3542" d="M 359.59375 184.171875 C 359.59375 184.171875 360.769531 186.964844 360.304688 187.144531 C 359.84375 187.324219 350.851562 187.386719 350.21875 186.929688 C 349.125 186.140625 353.664062 185.640625 354.335938 185.496094 C 355.011719 185.351562 357.097656 184.3125 357.097656 184.3125 C 357.097656 184.3125 359.046875 184.777344 359.59375 184.171875 " fill-opacity="1" fill-rule="nonzero"/></g><path fill="#943e38" d="M 369.425781 142.011719 C 369.425781 142.011719 362.753906 156.417969 358.59375 158.671875 C 362.871094 143.578125 365.144531 136.304688 369.425781 142.011719 " fill-opacity="1" fill-rule="nonzero"/><path fill="#ffffff" d="M 307.070312 131.613281 C 307.070312 131.613281 308.976562 131.800781 311.714844 131.789062 C 313.109375 131.785156 314.730469 131.71875 316.425781 131.546875 C 317.78125 131.421875 319.1875 131.21875 320.566406 130.917969 C 320.707031 125.046875 320.5625 119.730469 320.289062 115.164062 C 320.09375 111.875 319.835938 108.976562 319.566406 106.539062 L 319.566406 106.511719 C 319.136719 102.605469 318.691406 99.894531 318.484375 98.675781 C 318.351562 98.621094 318.21875 98.558594 318.070312 98.496094 C 317.0625 98.066406 315.863281 97.675781 314.589844 97.511719 C 313.6875 97.386719 312.75 97.378906 311.808594 97.546875 C 311.671875 97.574219 311.53125 97.601562 311.390625 97.628906 C 311.269531 97.664062 311.148438 97.699219 311.023438 97.734375 L 310.003906 106.480469 L 309.363281 111.941406 L 307.070312 131.613281 " fill-opacity="1" fill-rule="nonzero"/><path fill="#f29579" d="M 303.824219 136.105469 C 305.644531 138.070312 309.34375 138.007812 310.753906 135.4375 C 311.226562 134.574219 311.53125 133.332031 311.714844 131.789062 C 312.476562 125.367188 311.136719 113.863281 311.246094 104.257812 C 311.269531 102.332031 311.351562 100.476562 311.519531 98.753906 C 311.523438 98.621094 311.539062 98.496094 311.550781 98.371094 C 311.53125 98.050781 311.476562 97.808594 311.390625 97.628906 C 311.269531 97.664062 311.148438 97.699219 311.023438 97.734375 C 309.78125 98.09375 308.570312 98.800781 307.472656 100.011719 C 307.464844 100.003906 307.464844 100.003906 307.464844 99.996094 C 307.445312 100.03125 307.425781 100.066406 307.40625 100.101562 C 306.242188 102 305 105.183594 304.53125 110.324219 C 304.332031 112.585938 304.28125 115.226562 304.464844 118.304688 C 304.484375 118.640625 304.507812 118.988281 304.53125 119.332031 C 305.125 127.492188 301.480469 133.566406 303.824219 136.105469 " fill-opacity="1" fill-rule="nonzero"/><path fill="#f29579" d="M 316.425781 131.546875 C 316.566406 133.320312 316.808594 134.671875 317.179688 135.4375 C 318.679688 138.472656 324.863281 137.976562 326.335938 135.667969 C 327.8125 133.367188 328.183594 130.085938 327.886719 126.394531 C 327.121094 116.726562 321.75 104.238281 319.378906 99.117188 C 319.199219 99.027344 319.011719 98.925781 318.808594 98.832031 C 318.703125 98.78125 318.59375 98.730469 318.484375 98.675781 C 318.351562 98.621094 318.21875 98.558594 318.070312 98.496094 C 317.488281 104.246094 315.730469 122.84375 316.425781 131.546875 " fill-opacity="1" fill-rule="nonzero"/><path fill="#f29579" d="M 319.144531 113.683594 C 319.523438 114.160156 319.90625 114.65625 320.289062 115.164062 C 322.949219 118.664062 325.628906 122.746094 327.886719 126.394531 C 331.363281 131.992188 333.863281 136.585938 333.863281 136.585938 C 333.863281 136.585938 333.863281 136.585938 335.046875 135.800781 C 332.265625 113.441406 324.835938 103.703125 321.035156 100.089844 C 321.035156 100.09375 321.035156 100.101562 321.023438 100.109375 C 321.023438 100.109375 320.398438 99.652344 319.378906 99.117188 C 319.199219 99.027344 319.011719 98.925781 318.808594 98.832031 C 318.996094 100.09375 319.414062 103.265625 319.566406 106.511719 L 319.566406 106.539062 C 319.691406 109.207031 319.644531 111.925781 319.144531 113.683594 " fill-opacity="1" fill-rule="nonzero"/><path fill="#f29579" d="M 301.613281 112.433594 C 301.613281 112.433594 302.898438 120.050781 304.53125 119.332031 C 305.582031 118.867188 306.769531 109.671875 307.847656 110.3125 C 308.390625 110.625 308.90625 111.144531 309.363281 111.941406 C 309.664062 112.453125 309.933594 113.074219 310.167969 113.824219 C 310.074219 110.804688 310.191406 108.089844 310.414062 105.746094 C 310.691406 102.785156 311.136719 100.40625 311.519531 98.753906 C 311.621094 98.296875 311.726562 97.890625 311.808594 97.546875 C 311.671875 97.574219 311.53125 97.601562 311.390625 97.628906 C 311.269531 97.664062 311.148438 97.699219 311.023438 97.734375 C 309.78125 98.09375 308.570312 98.808594 307.472656 100.019531 C 307.464844 100.011719 307.464844 100.003906 307.464844 99.996094 C 307.4375 99.949219 307.484375 100.066406 307.472656 100.019531 C 303.628906 104.871094 301.734375 111.960938 301.621094 112.410156 C 301.613281 112.425781 301.613281 112.433594 301.613281 112.433594 " fill-opacity="1" fill-rule="nonzero"/><path fill="#f7bcaa" d="M 317.683594 90.945312 C 319.738281 91.714844 320.683594 99.386719 318.136719 100.285156 C 313.550781 101.902344 310.761719 95.703125 310.761719 95.703125 C 310.761719 95.703125 309.035156 87.703125 317.683594 90.945312 " fill-opacity="1" fill-rule="nonzero"/><path fill="#ed6a66" d="M 311.84375 87.847656 C 311.84375 87.164062 312.644531 86.265625 314.46875 86.164062 C 316.273438 86.0625 316.785156 87.542969 316.820312 88.152344 C 318.890625 88.039062 319.621094 89.039062 320.152344 89.722656 C 320.691406 90.417969 321.339844 92.753906 319.503906 93.597656 C 319.503906 93.597656 319.464844 93.605469 319.398438 93.632812 C 319.191406 93.703125 318.992188 93.753906 318.785156 93.769531 C 318.75 93.769531 318.707031 93.773438 318.65625 93.78125 C 317.550781 93.910156 315.53125 93.757812 313.714844 91.574219 C 314.828125 95.730469 313.535156 103.683594 312.285156 103.398438 C 309.5625 102.777344 307.429688 100.5625 306.972656 99.003906 C 305.679688 94.609375 307.820312 86.582031 311.84375 87.847656 " fill-opacity="1" fill-rule="nonzero"/><path fill="#f7bcaa" d="M 378.410156 182.628906 L 377.492188 178.785156 L 380.929688 178.152344 L 381.375 182.222656 L 378.410156 182.628906 " fill-opacity="1" fill-rule="nonzero"/><path fill="#f7bcaa" d="M 395.316406 182.542969 L 394.6875 177.226562 L 398.589844 176.734375 L 398.304688 182.363281 L 395.316406 182.542969 " fill-opacity="1" fill-rule="nonzero"/><g clip-path="url(#745bdf89de)"><path fill="#3d3542" d="M 382.417969 187.136719 C 382.417969 187.136719 371.175781 187.589844 371.175781 186.445312 C 371.175781 185.574219 377.066406 184.078125 377.460938 183.695312 C 378.8125 182.390625 378.410156 182.628906 378.410156 182.628906 L 381.375 182.222656 C 381.375 182.222656 383.289062 185.816406 382.417969 187.136719 " fill-opacity="1" fill-rule="nonzero"/></g><g clip-path="url(#498cd82d6a)"><path fill="#3d3542" d="M 399.015625 186.8125 C 399.015625 186.8125 388.007812 187.542969 387.816406 186.507812 C 387.660156 185.652344 393.882812 183.886719 394.304688 183.53125 C 395.734375 182.335938 395.316406 182.542969 395.316406 182.542969 L 398.304688 182.363281 C 398.304688 182.363281 399.976562 185.558594 399.015625 186.8125 " fill-opacity="1" fill-rule="nonzero"/></g><path fill="#f29579" d="M 377.65625 141.636719 C 377.65625 141.636719 374.183594 151.410156 374.054688 158.605469 C 373.84375 169.894531 376.007812 178.175781 376.433594 179.90625 C 377.5625 180.609375 382.515625 179.628906 382.515625 179.628906 C 382.515625 179.628906 381.75 169.820312 383.179688 160.863281 C 384.367188 153.429688 387.71875 148.417969 388.390625 148.550781 C 390.28125 148.917969 390.726562 167.3125 392.027344 178.863281 C 392.730469 179.417969 398.542969 178.941406 398.542969 178.941406 C 398.542969 178.941406 400.046875 147.503906 398.496094 136.371094 C 396.519531 131.558594 392.433594 131.273438 392.433594 131.273438 L 380.488281 132.679688 L 377.65625 141.636719 " fill-opacity="1" fill-rule="nonzero"/><path fill="#8eaca6" d="M 355.738281 139.765625 C 349.648438 120.355469 355.363281 108.589844 356.683594 105.757812 L 356.683594 105.75 L 356.691406 105.738281 C 358.074219 102.777344 359.355469 102.152344 359.355469 102.152344 L 359.351562 102.164062 C 359.351562 102.164062 359.351562 102.164062 359.355469 102.164062 C 359.472656 102.078125 359.589844 102.003906 359.710938 101.925781 C 360.636719 101.332031 361.632812 100.839844 362.683594 100.421875 C 363.453125 100.117188 364.269531 99.859375 365.105469 99.671875 C 366.949219 99.246094 367.558594 99.164062 367.558594 99.164062 C 367.558594 99.164062 367.96875 99.167969 368.679688 99.21875 C 368.796875 99.230469 368.929688 99.242188 369.0625 99.257812 C 369.070312 99.25 369.085938 99.257812 369.101562 99.253906 C 370.167969 99.414062 371.5625 99.832031 372.328125 100.171875 C 373.304688 100.601562 374.433594 101.199219 375.585938 102.03125 C 375.941406 102.277344 376.296875 102.558594 376.652344 102.859375 L 376.652344 102.851562 C 376.664062 102.863281 376.675781 102.871094 376.683594 102.878906 C 380.726562 106.277344 385.972656 113.421875 386.496094 125.476562 C 386.585938 127.480469 379.246094 135.773438 378.636719 138.863281 C 370.136719 141.09375 364.542969 138.730469 361.300781 136.558594 C 361.171875 138.425781 356.59375 142.496094 355.738281 139.765625 " fill-opacity="1" fill-rule="nonzero"/><path fill="#f7bcaa" d="M 367.820312 100.710938 C 367.820312 100.710938 370.734375 100.464844 370.570312 102.296875 C 370.402344 104.132812 368.621094 106.222656 366.675781 106.429688 C 364.738281 106.636719 362.988281 103.140625 363.304688 102.03125 C 363.625 100.917969 367.820312 100.710938 367.820312 100.710938 " fill-opacity="1" fill-rule="nonzero"/><path fill="#f7bcaa" d="M 367.796875 96.808594 C 367.796875 96.808594 369.011719 86.035156 363.867188 87.484375 C 358.726562 88.933594 357.523438 92.96875 359.039062 96.117188 C 360.554688 99.269531 364.941406 98.003906 364.941406 98.003906 L 367.796875 96.808594 " fill-opacity="1" fill-rule="nonzero"/><path fill="#42756d" d="M 367.796875 96.808594 C 367.796875 96.808594 373.011719 95.386719 369.796875 92.441406 C 370.664062 89.964844 372.160156 86.976562 368.890625 86.628906 C 367.675781 84.734375 363.929688 80.835938 362.605469 83.980469 C 360.644531 83.738281 356.890625 80.5 357.058594 84.394531 C 357.226562 88.285156 356.421875 91.234375 358.714844 91.625 C 361.46875 91.503906 366.902344 93.003906 367.796875 96.808594 " fill-opacity="1" fill-rule="nonzero"/><path fill="#f3bbaa" d="M 363.15625 92.894531 C 363.15625 92.894531 366.726562 89.082031 365.386719 93.769531 C 364.273438 94.304688 363.15625 92.894531 363.15625 92.894531 " fill-opacity="1" fill-rule="nonzero"/><path fill="#f3bbaa" d="M 367.796875 96.808594 C 367.796875 96.808594 368.65625 101.527344 368.609375 102.503906 C 368.628906 102.945312 363.589844 104.148438 362.96875 98.148438 C 363.894531 97.042969 367.796875 96.808594 367.796875 96.808594 " fill-opacity="1" fill-rule="nonzero"/><path fill="#f3bbaa" d="M 346.617188 115.347656 C 346.617188 115.347656 348.859375 120.140625 349.222656 122.496094 C 350.941406 118.421875 354.3125 116.738281 356.347656 113.800781 C 356.59375 113.441406 358.097656 112.140625 358.761719 112.070312 C 359.472656 111.992188 359.363281 113.160156 360.082031 113.085938 C 361.683594 112.910156 365.191406 111.117188 365.046875 111.925781 C 364.265625 116.363281 357.910156 115.253906 357.910156 115.253906 C 357.910156 115.253906 352.808594 131.164062 348.320312 131.003906 C 343.824219 130.84375 340.351562 123.21875 340.351562 123.21875 L 346.617188 115.347656 " fill-opacity="1" fill-rule="nonzero"/><path fill="#3d3542" d="M 334.90625 184.460938 L 333.066406 184.460938 C 331.636719 180.941406 327.269531 168.292969 332.632812 162.160156 C 332.324219 160.734375 323.621094 139.46875 326.550781 133.519531 C 329.480469 127.566406 336.964844 121.191406 342.035156 131.6875 C 342.035156 131.6875 344.25 143.609375 337.410156 164.359375 C 336.246094 166.398438 334.320312 183.332031 334.90625 184.460938 " fill-opacity="1" fill-rule="nonzero"/><path fill="#3d3542" d="M 328.660156 184.640625 L 326.484375 184.59375 C 325.671875 181.296875 322.296875 167.449219 328.671875 161.953125 C 328.566406 160.5 322.945312 138.226562 326.683594 132.742188 C 330.421875 127.265625 338.726562 122.007812 342.269531 133.105469 C 342.269531 133.105469 342.785156 145.226562 333.09375 164.804688 C 331.628906 166.695312 327.773438 182.367188 328.660156 184.640625 " fill-opacity="1" fill-rule="nonzero"/><path fill="#ccefe8" d="M 344.613281 139.03125 C 344.488281 139.429688 344.039062 139.972656 343.328125 140.539062 C 342.652344 141.070312 341.75 141.621094 340.667969 142.089844 C 339.519531 142.589844 338.167969 142.996094 336.6875 143.175781 C 333.269531 143.609375 329.148438 142.875 325.117188 139.476562 C 325.046875 139.226562 324.976562 138.972656 324.90625 138.699219 C 324.742188 138.027344 324.597656 137.289062 324.464844 136.5 C 324.035156 133.855469 323.835938 130.625 323.898438 127.210938 C 324.011719 121.035156 324.90625 114.234375 327.078125 109.304688 C 332.609375 104.089844 337.605469 101.554688 338.972656 101.683594 C 341.875 101.949219 344.632812 105.53125 345.71875 109.730469 C 345.726562 109.734375 345.726562 109.734375 345.71875 109.738281 C 346.171875 111.460938 346.460938 113.367188 346.617188 115.347656 C 346.644531 115.695312 346.671875 116.042969 346.6875 116.398438 C 347.273438 126.394531 344.957031 137.957031 344.613281 139.03125 " fill-opacity="1" fill-rule="nonzero"/><path fill="#f3bbaa" d="M 338.59375 116.578125 C 338.59375 116.578125 345.363281 111.578125 344.34375 114.757812 C 343.324219 117.941406 342.804688 119.050781 339.691406 118.410156 C 337.765625 118.015625 338.59375 116.578125 338.59375 116.578125 " fill-opacity="1" fill-rule="nonzero"/><path fill="#f3bbaa" d="M 339.691406 118.347656 C 334.476562 128.519531 321.089844 129 318.828125 124.707031 C 316.34375 120.003906 322.121094 113.535156 327.480469 108.945312 C 328.054688 110.648438 329.558594 114.621094 333.632812 116.480469 C 331.894531 117.949219 329.824219 119.390625 327.410156 120.730469 C 331.511719 121.398438 338.800781 116.433594 338.800781 116.433594 C 338.800781 116.433594 339.785156 118.246094 339.691406 118.347656 " fill-opacity="1" fill-rule="nonzero"/><g clip-path="url(#96bebf243a)"><path fill="#e95955" d="M 333 184.257812 C 333 184.257812 331.375 186.699219 331.75 186.871094 C 332.125 187.039062 342.753906 187.496094 343.261719 187.0625 C 344.148438 186.316406 337.609375 185.179688 337.066406 185.042969 C 336.523438 184.90625 334.90625 184.460938 334.90625 184.460938 C 334.90625 184.460938 334.121094 184.390625 333 184.257812 " fill-opacity="1" fill-rule="nonzero"/></g><g clip-path="url(#f0d549bb2d)"><path fill="#e95955" d="M 326.484375 184.59375 C 326.484375 184.59375 325.132812 186.882812 325.503906 187.050781 C 325.878906 187.222656 335.644531 187.363281 336.15625 186.933594 C 337.039062 186.1875 331.738281 185.632812 331.199219 185.5 C 330.652344 185.363281 328.660156 184.640625 328.660156 184.640625 C 328.660156 184.640625 327.863281 184.539062 326.484375 184.59375 " fill-opacity="1" fill-rule="nonzero"/></g><path fill="#f3bbaa" d="M 336.410156 95.183594 C 336.410156 95.183594 336.800781 98.105469 338.542969 99.167969 C 340.28125 100.238281 338.796875 101.460938 338.882812 102.367188 C 338.953125 103.152344 339.507812 105.796875 341.304688 104.730469 C 343.101562 103.664062 342.65625 100.25 343.332031 100.984375 C 343.539062 101.207031 344.945312 101.957031 345.578125 101.921875 C 346.382812 101.871094 348.535156 99.375 348.648438 98.777344 C 348.789062 98.003906 348.03125 96.214844 347.1875 95.335938 C 346.34375 94.453125 336.410156 94.734375 336.410156 95.183594 " fill-opacity="1" fill-rule="nonzero"/><path fill="#f3bbaa" d="M 347.1875 95.335938 C 347.1875 95.335938 348.199219 93.679688 348.160156 93.238281 C 348.160156 93.238281 335.136719 84.484375 336.410156 95.183594 C 339.179688 96.457031 347.1875 95.335938 347.1875 95.335938 " fill-opacity="1" fill-rule="nonzero"/><path fill="#3d3542" d="M 337.90625 98.550781 C 337.90625 98.550781 333.230469 96.382812 335.175781 91.292969 C 335.601562 90.179688 339.289062 88.671875 342.367188 87.9375 C 344.210938 87.496094 344.195312 85.457031 346.402344 87.699219 C 349 90.34375 348.160156 93.238281 348.160156 93.238281 L 344.34375 92.5625 C 344.34375 92.5625 341.648438 95.707031 337.90625 98.550781 " fill-opacity="1" fill-rule="nonzero"/><path fill="#f3bbaa" d="M 342.621094 94.660156 C 342.621094 94.660156 339.550781 92.640625 340.898438 96.308594 C 342.320312 96.308594 342.621094 94.660156 342.621094 94.660156 " fill-opacity="1" fill-rule="nonzero"/><g clip-path="url(#a34746d815)"><path fill="#ed6a66" d="M 391.097656 97.84375 C 391.097656 97.84375 393.625 98.234375 395.179688 99.769531 C 396.734375 101.304688 395.941406 102.269531 396.476562 103.1875 C 397.007812 104.101562 399.890625 102.898438 401.671875 104.527344 C 403.453125 106.15625 402.042969 108.355469 403.351562 109.933594 C 404.660156 111.511719 407.753906 110.144531 409.804688 112.980469 C 418.8125 125.417969 402.277344 133.921875 396.476562 129.441406 C 392.214844 126.152344 386.558594 102.769531 388.136719 98.589844 C 389.71875 94.402344 391.097656 97.84375 391.097656 97.84375 " fill-opacity="1" fill-rule="nonzero"/></g><path fill="#4a7eff" d="M 393.929688 146.167969 C 391.289062 139.4375 390.949219 134.46875 390.949219 134.46875 L 397.042969 134.46875 C 397.042969 134.46875 397.375 140.675781 397.453125 146.167969 L 393.929688 146.167969 " fill-opacity="1" fill-rule="nonzero"/><path fill="#f37d59" d="M 375.753906 146.167969 C 375.597656 141.621094 375.648438 137.824219 375.636719 135.144531 L 377.476562 134.949219 L 391.800781 133.371094 C 391.800781 133.371094 394.25 139.292969 396.621094 144.707031 C 396.742188 145.171875 396.851562 145.664062 396.957031 146.167969 L 375.753906 146.167969 " fill-opacity="1" fill-rule="nonzero"/><path fill="#42756d" d="M 399.441406 151.089844 C 397.757812 153.878906 376.269531 151.742188 375.519531 149.28125 C 374.980469 145.109375 373.863281 132.21875 374.261719 128.210938 C 376.238281 108.152344 381.390625 107.453125 381.390625 107.453125 C 381.390625 107.453125 383.289062 107.585938 383.445312 107.03125 C 404.742188 105.832031 401.058594 135.660156 401.058594 135.660156 C 401.058594 135.660156 400.78125 146.871094 399.441406 151.089844 " fill-opacity="1" fill-rule="nonzero"/><path fill="#f7bcaa" d="M 384.414062 124.347656 C 387.519531 123.445312 392.097656 130.28125 398.582031 127.035156 C 397.816406 126.210938 396.972656 125.117188 396.128906 123.898438 C 396.550781 123.75 396.980469 123.605469 397.414062 123.46875 C 399.582031 122.777344 401.621094 122.925781 403.773438 123.054688 C 403.835938 123.34375 403.902344 123.636719 403.964844 123.941406 C 406.441406 135.664062 399.738281 139.597656 387.378906 128.789062 C 387.378906 128.789062 386.207031 128.273438 383.457031 128.515625 C 379.152344 129.4375 377.324219 126.414062 384.414062 124.347656 " fill-opacity="1" fill-rule="nonzero"/><path fill="#42756d" d="M 392.664062 107.316406 C 392.664062 107.316406 401.292969 110.175781 403.964844 123.941406 C 402.957031 123.832031 399.546875 124.917969 397.851562 126.160156 C 393.339844 123.792969 384.859375 114.109375 386.496094 111.289062 C 388.132812 108.46875 388.25 104.171875 392.664062 107.316406 " fill-opacity="1" fill-rule="nonzero"/><path fill="#ffffff" d="M 389.222656 103.824219 C 389.222656 103.824219 394.050781 104.421875 393.511719 107.632812 C 392.96875 110.84375 386.949219 111.246094 385.425781 111.074219 C 383.902344 110.902344 381.539062 110.253906 380.792969 108.652344 C 379.894531 106.71875 382.09375 102.675781 389.222656 103.824219 " fill-opacity="1" fill-rule="nonzero"/><path fill="#f3bbaa" d="M 384.40625 100.078125 C 384.40625 100.078125 382.757812 106.421875 386.679688 107.078125 C 388.253906 107.339844 388.925781 106.21875 389.066406 105.621094 C 389.46875 103.921875 388.039062 102.0625 388.644531 99.417969 C 386.574219 99.585938 384.40625 100.078125 384.40625 100.078125 " fill-opacity="1" fill-rule="nonzero"/><path fill="#f7bcaa" d="M 388.886719 98.679688 C 388.765625 99.222656 388.597656 100.253906 388.5 100.761719 C 388.035156 103.167969 385.890625 103.191406 383.214844 103.0625 C 377.761719 102.796875 378.699219 92.570312 385.496094 92.757812 C 387.804688 92.824219 389.5625 95.734375 388.886719 98.679688 " fill-opacity="1" fill-rule="nonzero"/><path fill="#ed6a66" d="M 379.808594 97.625 C 375.691406 91.613281 384.921875 88.136719 386.632812 91.574219 C 393.828125 91.652344 394.621094 99.351562 388.5 100.761719 C 389.378906 95.667969 386.410156 96.121094 386.34375 94.035156 C 384.875 97.5 380.105469 98.058594 379.808594 97.625 " fill-opacity="1" fill-rule="nonzero"/><path fill="#f7bcaa" d="M 387.960938 98.660156 C 388.433594 98.9375 389.117188 98.65625 389.484375 98.035156 C 389.84375 97.410156 389.757812 96.679688 389.28125 96.402344 C 388.804688 96.125 388.125 96.40625 387.757812 97.027344 C 387.394531 97.652344 387.484375 98.382812 387.960938 98.660156 " fill-opacity="1" fill-rule="nonzero"/><path fill="#ffffff" d="M 301.132812 109.550781 C 301.132812 109.550781 304.042969 115.367188 304.273438 117.179688 C 304.535156 119.257812 308.957031 130.90625 305.988281 138.121094 L 304.273438 138.003906 C 304.273438 138.003906 302.332031 132.488281 301.53125 127.234375 C 300.40625 119.871094 300.597656 111.160156 301.132812 109.550781 " fill-opacity="1" fill-rule="nonzero"/><path fill="#87806e" d="M 294.617188 183.496094 L 292.46875 183.496094 C 290.796875 179.242188 285.699219 165.214844 291.960938 157.796875 C 291.601562 156.078125 281.441406 130.363281 284.863281 123.164062 C 288.285156 115.964844 298.46875 123.066406 304.386719 135.757812 C 304.386719 135.757812 305.53125 135.367188 297.542969 160.460938 C 296.183594 162.925781 293.933594 182.132812 294.617188 183.496094 " fill-opacity="1" fill-rule="nonzero"/><path fill="#87806e" d="M 302.925781 134.65625 L 287.492188 134.65625 C 287.484375 134.667969 287.476562 134.675781 287.46875 134.6875 C 283.789062 139.441406 285.945312 155.742188 285.898438 157.503906 C 277.84375 163.394531 280.261719 179.175781 280.808594 183.242188 L 283.335938 183.542969 C 282.570312 180.707031 288.777344 163.546875 290.703125 161.441406 C 297.417969 150.316406 301.011719 141.117188 302.925781 134.65625 " fill-opacity="1" fill-rule="nonzero"/><path fill="#39655e" d="M 292.390625 183.25 C 292.390625 183.25 290.496094 186.207031 290.933594 186.414062 C 291.367188 186.617188 301.390625 186.832031 301.988281 186.308594 C 303.019531 185.402344 297.195312 184.6875 296.558594 184.523438 C 295.925781 184.359375 294.617188 183.496094 294.617188 183.496094 C 294.617188 183.496094 293.699219 183.414062 292.390625 183.25 " fill-opacity="1" fill-rule="nonzero"/><path fill="#39655e" d="M 280.808594 183.242188 C 280.808594 183.242188 278.972656 185.839844 279.382812 186.085938 C 279.800781 186.332031 288.230469 187.230469 288.878906 186.769531 C 289.988281 185.96875 285.785156 184.980469 285.167969 184.753906 C 284.554688 184.53125 283.335938 183.542969 283.335938 183.542969 C 283.335938 183.542969 282.421875 183.332031 280.808594 183.242188 " fill-opacity="1" fill-rule="nonzero"/><path fill="#8eaca6" d="M 284.199219 136.703125 C 288.023438 142.015625 304.308594 139.871094 304.308594 139.566406 C 304.488281 138.007812 304.625 136.496094 304.726562 135.003906 C 305.296875 126.769531 304.699219 119.683594 303.730469 114.035156 C 303.542969 112.9375 303.339844 111.898438 303.132812 110.910156 C 298.902344 105.585938 295.671875 100.785156 295.160156 98.394531 C 295.015625 98.449219 294.867188 98.515625 294.722656 98.589844 C 294.15625 98.863281 293.554688 99.289062 292.84375 99.789062 C 282.679688 107.003906 281.308594 132.679688 284.199219 136.703125 " fill-opacity="1" fill-rule="nonzero"/><path fill="#ffffff" d="M 291.167969 102.972656 C 293.105469 101.453125 296.8125 103.421875 297.683594 108.820312 C 298.554688 114.21875 298.789062 123.804688 298.789062 123.804688 C 301.378906 127.074219 303.316406 131.410156 304.957031 136.230469 L 303.761719 137.511719 C 303.761719 137.511719 293.382812 128.273438 292.035156 125.242188 C 289.839844 120.296875 284.648438 108.070312 291.167969 102.972656 " fill-opacity="1" fill-rule="nonzero"/><path fill="#ffffff" d="M 298.5 116.667969 C 298.160156 114.785156 297.921875 110.300781 297.683594 108.820312 C 296.8125 103.421875 293.105469 101.453125 291.167969 102.972656 C 286.816406 106.375 287.894531 113.527344 289.605469 118.996094 C 293.261719 118.644531 296.898438 117.734375 298.5 116.667969 " fill-opacity="1" fill-rule="nonzero"/><path fill="#f7bcaa" d="M 304.597656 135.15625 C 304.597656 135.15625 307.777344 135.8125 306.4375 139.460938 C 304.398438 145 303.082031 139.136719 303.300781 137.113281 C 304.570312 136.265625 304.597656 135.15625 304.597656 135.15625 " fill-opacity="1" fill-rule="nonzero"/><path fill="#ffffff" d="M 295.160156 98.394531 C 295.671875 100.785156 298.902344 105.585938 303.132812 110.910156 C 303.132812 110.90625 303.132812 110.90625 303.132812 110.902344 C 301.542969 103.441406 299.488281 99.234375 299.488281 99.234375 C 299.488281 99.234375 297.929688 97.371094 295.160156 98.394531 " fill-opacity="1" fill-rule="nonzero"/><path fill="#f7bcaa" d="M 292.539062 91.3125 C 292.539062 91.3125 293.359375 94.332031 295.28125 95.214844 C 297.207031 96.09375 295.871094 97.589844 296.089844 98.535156 C 296.277344 99.351562 299.035156 101.308594 299.652344 100.746094 C 301.25 99.28125 299.621094 95.773438 300.417969 96.457031 C 300.660156 96.664062 302.195312 97.257812 302.835938 97.125 C 303.648438 96.964844 304.910156 93.679688 304.9375 93.035156 C 304.96875 92.203125 304.503906 90.777344 303.519531 89.96875 C 302.535156 89.15625 292.472656 90.839844 292.539062 91.3125 " fill-opacity="1" fill-rule="nonzero"/><path fill="#f3bbaa" d="M 303.519531 89.96875 C 303.519531 89.96875 304.59375 88.03125 304.207031 87.621094 C 303.277344 86.640625 289.695312 80.21875 292.539062 91.3125 C 295.535156 92.269531 303.519531 89.96875 303.519531 89.96875 " fill-opacity="1" fill-rule="nonzero"/><path fill="#3d3542" d="M 294.546875 94.652344 C 294.546875 94.652344 289.449219 90.855469 290.691406 85.222656 C 291.128906 83.253906 301.351562 83.511719 303 84.402344 C 306.175781 86.113281 305.578125 87.097656 304.101562 87.9375 C 302.691406 88.742188 300.226562 87.445312 300.226562 87.445312 C 300.226562 87.445312 297.941406 91.132812 294.546875 94.652344 " fill-opacity="1" fill-rule="nonzero"/><path fill="#f3bbaa" d="M 298.777344 89.894531 C 298.777344 89.894531 295.367188 88.195312 297.265625 91.867188 C 298.710938 91.671875 298.777344 89.894531 298.777344 89.894531 " fill-opacity="1" fill-rule="nonzero"/><path fill="#8eaca6" d="M 295.160156 98.394531 C 295.671875 100.785156 298.902344 105.585938 303.132812 110.910156 C 303.339844 111.898438 303.542969 112.9375 303.730469 114.035156 C 298.425781 109.347656 295.136719 102.078125 294.089844 98.941406 L 295.160156 98.394531 " fill-opacity="1" fill-rule="nonzero"/><path fill="#bab098" d="M 366.328125 69.238281 C 365.398438 69.882812 366.328125 72.335938 368.066406 71.5625 C 369.8125 70.789062 368.84375 67.496094 366.328125 69.238281 " fill-opacity="1" fill-rule="nonzero"/><path fill="#bab098" d="M 367.304688 64.617188 C 366.261719 65.527344 366.007812 67.210938 368.382812 67.855469 C 370.761719 68.503906 371.625 65.695312 370.976562 64.617188 C 370.328125 63.535156 369.03125 63.105469 367.304688 64.617188 " fill-opacity="1" fill-rule="nonzero"/><path fill="#bab098" d="M 372.449219 39.042969 C 366.382812 39.207031 354.695312 44.796875 357.640625 53.179688 C 360.582031 61.566406 380.761719 67.464844 386.054688 62.488281 C 391.347656 57.507812 390.089844 38.566406 372.449219 39.042969 " fill-opacity="1" fill-rule="nonzero"/><path fill="#f7bcaa" d="M 291.136719 59.597656 C 290.253906 59.597656 289.421875 59.824219 288.699219 60.21875 C 288.902344 59.761719 289.019531 59.269531 289.019531 58.753906 C 289.019531 56.414062 286.742188 54.515625 283.9375 54.515625 C 281.75 54.515625 279.890625 55.671875 279.175781 57.289062 C 278.320312 56.746094 277.257812 56.421875 276.101562 56.421875 C 273.296875 56.421875 271.023438 58.316406 271.023438 60.65625 C 271.023438 61.195312 271.148438 61.710938 271.367188 62.183594 C 268.902344 62.472656 267 64.238281 267 66.375 C 267 68.710938 269.277344 70.605469 272.082031 70.605469 C 272.472656 70.605469 272.855469 70.566406 273.222656 70.496094 C 273.640625 72.484375 275.71875 73.996094 278.21875 73.996094 C 279.125 73.996094 279.972656 73.789062 280.707031 73.445312 C 281.945312 75.246094 283.792969 77.652344 285.421875 78.652344 C 285.296875 78.050781 285.109375 75.449219 284.96875 73.328125 C 285.117188 73.335938 285.265625 73.359375 285.421875 73.359375 C 287.988281 73.359375 290.105469 71.769531 290.449219 69.707031 C 290.671875 69.738281 290.902344 69.761719 291.136719 69.761719 C 293.941406 69.761719 296.21875 67.484375 296.21875 64.679688 C 296.21875 61.871094 293.941406 59.597656 291.136719 59.597656 " fill-opacity="1" fill-rule="nonzero"/><path fill="#ccefe8" d="M 387.28125 51.175781 C 389.679688 49.355469 409.714844 52.492188 411.132812 55.042969 C 412.558594 57.613281 406.804688 77.691406 404.25 79.105469 C 403.355469 79.605469 401.730469 79.621094 399.773438 79.335938 C 398.875 81.0625 397.503906 83.480469 396.699219 83.925781 C 396.65625 82.863281 396.417969 80.496094 396.417969 78.648438 C 390.78125 77.21875 384.324219 74.414062 383.660156 73.21875 C 381.878906 70.011719 385.222656 52.730469 387.28125 51.175781 " fill-opacity="1" fill-rule="nonzero"/><path fill="#000000" d="M 209.964844 144.445312 C 209.964844 143.925781 210.382812 143.503906 210.898438 143.503906 C 211.109375 143.503906 216.105469 143.542969 218.230469 146.75 C 218.519531 147.179688 218.402344 147.765625 217.972656 148.054688 C 217.542969 148.34375 216.960938 148.226562 216.675781 147.792969 C 215.105469 145.429688 210.941406 145.386719 210.898438 145.386719 C 210.382812 145.386719 209.964844 144.964844 209.964844 144.445312 Z M 233.511719 142.324219 C 235.210938 135.835938 234.332031 129.28125 231.214844 125.214844 C 229.054688 122.394531 225.675781 120.792969 222.132812 120.90625 C 219.339844 120.753906 216.628906 121.878906 214.757812 123.972656 C 212.519531 126.578125 211.8125 130.410156 211.648438 133.507812 C 215.539062 132.652344 219.609375 133.628906 222.691406 136.164062 C 225.925781 138.523438 227.8125 142.320312 227.746094 146.335938 C 227.746094 150.863281 226.15625 151.945312 221.378906 152.90625 C 219.457031 153.191406 217.617188 153.902344 216.003906 154.988281 C 215.269531 155.441406 214.4375 155.960938 213.191406 156.589844 C 212.222656 157.125 211.144531 157.429688 210.039062 157.480469 C 209.410156 157.484375 208.789062 157.339844 208.222656 157.0625 C 206.90625 156.429688 206.054688 155.117188 206.003906 153.65625 C 206.105469 152.25 206.53125 150.890625 207.25 149.683594 C 207.476562 149.21875 208.035156 149.027344 208.496094 149.253906 C 208.960938 149.480469 209.15625 150.046875 208.929688 150.511719 C 208.355469 151.472656 207.996094 152.546875 207.875 153.65625 C 207.925781 154.402344 208.371094 155.058594 209.046875 155.371094 C 209.863281 155.773438 210.914062 155.625 212.351562 154.902344 C 213.265625 154.441406 214.15625 153.933594 215.019531 153.382812 C 216.820312 152.171875 218.867188 151.378906 221.011719 151.054688 C 225.488281 150.152344 225.878906 149.460938 225.878906 146.328125 C 225.957031 142.902344 224.34375 139.660156 221.570312 137.667969 C 218.796875 135.363281 215.089844 134.535156 211.609375 135.453125 C 211.617188 136.519531 211.6875 137.589844 211.820312 138.652344 C 211.898438 139.167969 211.546875 139.648438 211.035156 139.726562 C 210.523438 139.804688 210.046875 139.449219 209.96875 138.933594 C 209.90625 138.507812 208.464844 128.421875 213.332031 122.738281 C 215.554688 120.226562 218.792969 118.855469 222.132812 119.023438 C 226.257812 118.898438 230.1875 120.773438 232.699219 124.066406 C 236.164062 128.585938 237.167969 135.761719 235.320312 142.804688 C 235.214844 143.214844 234.84375 143.503906 234.417969 143.503906 C 234.335938 143.503906 234.253906 143.492188 234.175781 143.472656 C 233.675781 143.339844 233.378906 142.824219 233.511719 142.324219 Z M 236.359375 147.261719 C 237.460938 143.855469 238.039062 140.300781 238.066406 136.71875 C 238.15625 133.925781 238.417969 125.433594 233.519531 120.347656 C 230.867188 117.59375 227.039062 116.199219 222.132812 116.199219 L 221.984375 116.199219 C 219.3125 116.164062 216.664062 116.691406 214.203125 117.738281 C 210.570312 119.414062 207.714844 122.433594 206.234375 126.167969 C 203.941406 131.5 204.304688 134.804688 204.910156 140.28125 C 205.03125 141.382812 205.160156 142.5625 205.277344 143.851562 C 205.769531 147.378906 204.949219 150.96875 202.980469 153.933594 C 201.722656 156.074219 200.636719 157.925781 201.515625 162.261719 C 202.027344 165.082031 204.042969 167.386719 206.757812 168.257812 C 212.113281 170.171875 219.753906 167.972656 226.222656 162.644531 C 226.976562 162.023438 227.65625 161.398438 228.273438 160.777344 C 228.9375 156.414062 230.964844 152.375 234.0625 149.246094 C 234.777344 148.53125 235.542969 147.867188 236.359375 147.261719 " fill-opacity="1" fill-rule="nonzero"/><path fill="#000000" d="M 253.101562 161.617188 C 251.707031 160.929688 250.070312 160.929688 248.671875 161.617188 C 246.171875 162.847656 245.136719 165.882812 246.359375 168.398438 C 246.59375 168.859375 247.148438 169.050781 247.613281 168.832031 C 248.078125 168.601562 248.269531 168.039062 248.046875 167.574219 C 247.449219 166.347656 247.6875 164.878906 248.640625 163.910156 C 249.605469 162.949219 251.066406 162.710938 252.285156 163.3125 C 252.75 163.539062 253.308594 163.34375 253.535156 162.878906 C 253.761719 162.410156 253.566406 161.84375 253.101562 161.617188 " fill-opacity="1" fill-rule="nonzero"/><path fill="#000000" d="M 249.34375 146.953125 C 249.839844 146.949219 250.238281 146.542969 250.234375 146.042969 C 250.253906 145.523438 249.847656 145.085938 249.332031 145.070312 C 249.128906 145.0625 248.921875 145.058594 248.714844 145.058594 C 248.460938 145.058594 248.203125 145.0625 247.945312 145.070312 C 237.601562 145.453125 229.523438 154.199219 229.902344 164.601562 C 229.921875 165.109375 230.335938 165.515625 230.839844 165.511719 L 230.886719 165.511719 C 231.398438 165.488281 231.796875 165.054688 231.777344 164.539062 C 231.761719 164.117188 231.761719 163.695312 231.777344 163.277344 C 232.125 153.910156 239.957031 146.601562 249.269531 146.949219 C 249.292969 146.953125 249.316406 146.953125 249.34375 146.953125 " fill-opacity="1" fill-rule="nonzero"/><g clip-path="url(#141cab8a6e)"><path fill="#000000" d="M 255.230469 163.734375 C 254.539062 165.132812 252.851562 165.699219 251.460938 165.003906 L 251.460938 165.007812 C 251.09375 164.816406 250.65625 164.816406 250.289062 165.007812 C 249.65625 165.332031 249.402344 166.113281 249.730469 166.75 C 250.40625 168.152344 249.828125 169.84375 248.433594 170.527344 C 248.433594 170.527344 248.429688 170.527344 248.429688 170.527344 C 247.035156 171.210938 245.355469 170.625 244.675781 169.222656 C 243.734375 167.289062 243.734375 165.03125 244.675781 163.097656 C 246.355469 159.65625 250.496094 158.234375 253.921875 159.921875 C 253.9375 159.929688 253.953125 159.9375 253.96875 159.945312 C 255.359375 160.644531 255.921875 162.339844 255.230469 163.734375 Z M 241.65625 165.925781 C 241.824219 167.476562 240.714844 168.867188 239.171875 169.039062 C 239.0625 169.050781 238.964844 169.058594 238.863281 169.058594 C 237.429688 169.054688 236.230469 167.972656 236.074219 166.539062 C 235.960938 165.527344 235.960938 164.507812 236.074219 163.496094 C 236.910156 155.902344 243.707031 150.429688 251.257812 151.269531 C 252.796875 151.4375 253.910156 152.832031 253.742188 154.382812 C 253.574219 155.9375 252.1875 157.054688 250.644531 156.886719 C 250.042969 156.816406 249.4375 156.816406 248.832031 156.886719 C 244.367188 157.390625 241.15625 161.4375 241.65625 165.925781 Z M 233.65625 164.480469 C 233.707031 166.039062 232.496094 167.34375 230.945312 167.398438 L 230.847656 167.398438 C 229.328125 167.40625 228.082031 166.195312 228.039062 164.667969 C 228.027344 164.300781 228.023438 163.929688 228.03125 163.5625 C 227.824219 163.742188 227.628906 163.921875 227.414062 164.097656 C 222.160156 168.421875 216.121094 170.808594 210.914062 170.808594 C 209.289062 170.828125 207.667969 170.5625 206.132812 170.027344 C 202.804688 168.929688 200.332031 166.097656 199.683594 162.636719 C 198.660156 157.589844 200.039062 155.242188 201.367188 152.976562 C 203.132812 150.351562 203.859375 147.160156 203.414062 144.027344 C 203.296875 142.75 203.167969 141.582031 203.046875 140.492188 C 202.433594 134.902344 202.027344 131.210938 204.515625 125.421875 C 206.179688 121.25 209.375 117.882812 213.4375 116.019531 C 216.136719 114.863281 219.042969 114.28125 221.976562 114.316406 L 222.132812 114.316406 C 227.5625 114.316406 231.84375 115.90625 234.863281 119.035156 C 240.3125 124.691406 240.03125 133.789062 239.9375 136.777344 C 239.910156 139.804688 239.511719 142.816406 238.742188 145.742188 C 242.003906 143.957031 245.679688 143.074219 249.390625 143.183594 C 249.390625 143.183594 249.394531 143.183594 249.394531 143.183594 C 250.945312 143.238281 252.160156 144.542969 252.105469 146.101562 C 252.039062 147.648438 250.757812 148.859375 249.21875 148.832031 C 248.835938 148.820312 248.457031 148.820312 248.078125 148.832031 C 239.796875 149.148438 233.339844 156.15625 233.65625 164.480469 Z M 256.980469 161.039062 C 256.597656 159.894531 255.796875 158.96875 254.664062 158.402344 C 254.238281 158.191406 253.800781 158.03125 253.355469 157.894531 C 254.476562 157.183594 255.265625 155.984375 255.421875 154.566406 C 255.550781 153.367188 255.207031 152.1875 254.457031 151.246094 C 253.800781 150.425781 252.890625 149.890625 251.882812 149.679688 C 252.980469 148.890625 253.726562 147.628906 253.789062 146.160156 C 253.832031 144.953125 253.402344 143.804688 252.582031 142.921875 C 251.761719 142.039062 250.648438 141.53125 249.441406 141.488281 C 249.214844 141.484375 248.992188 141.480469 248.765625 141.480469 C 246.148438 141.480469 243.546875 141.941406 241.089844 142.828125 C 241.425781 140.839844 241.605469 138.828125 241.621094 136.828125 C 241.722656 133.664062 242.023438 124.03125 236.070312 117.855469 C 232.722656 114.382812 228.035156 112.621094 222.132812 112.621094 L 221.738281 112.621094 C 218.644531 112.621094 215.628906 113.238281 212.734375 114.476562 C 208.257812 116.53125 204.785156 120.195312 202.96875 124.746094 C 200.300781 130.953125 200.75 135.03125 201.371094 140.675781 C 201.488281 141.757812 201.617188 142.917969 201.742188 144.265625 C 202.132812 146.992188 201.503906 149.746094 199.917969 152.113281 C 198.492188 154.539062 196.878906 157.289062 198.027344 162.949219 C 198.789062 167.019531 201.695312 170.347656 205.582031 171.632812 C 207.253906 172.210938 209 172.507812 210.769531 172.507812 L 210.914062 172.503906 C 216.046875 172.503906 221.761719 170.398438 226.855469 166.675781 C 227.601562 168.121094 229.101562 169.09375 230.847656 169.09375 C 230.867188 169.09375 230.984375 169.09375 231.003906 169.09375 C 232.453125 169.042969 233.707031 168.292969 234.492188 167.1875 C 234.933594 169.246094 236.726562 170.75 238.863281 170.753906 C 239.019531 170.753906 239.175781 170.746094 239.359375 170.726562 C 240.773438 170.566406 241.949219 169.75 242.65625 168.617188 C 242.789062 169.074219 242.949219 169.527344 243.160156 169.960938 C 243.910156 171.507812 245.496094 172.507812 247.207031 172.507812 C 247.890625 172.507812 248.550781 172.355469 249.171875 172.050781 C 250.25 171.523438 251.058594 170.605469 251.449219 169.460938 C 251.746094 168.609375 251.777344 167.707031 251.546875 166.839844 C 251.929688 166.941406 252.320312 166.996094 252.714844 166.996094 C 254.429688 166.996094 255.972656 166.035156 256.738281 164.492188 C 257.273438 163.410156 257.359375 162.1875 256.980469 161.039062 " fill-opacity="1" fill-rule="nonzero"/></g><path fill="#000000" d="M 250.847656 155.015625 L 250.851562 155.011719 C 251.367188 155.070312 251.828125 154.695312 251.886719 154.179688 C 251.941406 153.660156 251.570312 153.195312 251.054688 153.140625 C 250.617188 153.09375 250.175781 153.066406 249.734375 153.066406 C 249.300781 153.066406 248.867188 153.09375 248.433594 153.140625 C 241.914062 153.867188 237.214844 159.773438 237.9375 166.332031 C 237.996094 166.847656 238.457031 167.222656 238.972656 167.164062 C 239.484375 167.109375 239.855469 166.644531 239.800781 166.125 C 239.71875 165.386719 239.71875 164.644531 239.800781 163.90625 C 240.410156 158.382812 245.355469 154.402344 250.847656 155.015625 " fill-opacity="1" fill-rule="nonzero"/><g clip-path="url(#e2aa660ac8)"><path fill="#000000" d="M 227.132812 52.566406 C 210.460938 52.566406 196.222656 62.980469 190.457031 77.679688 C 196.222656 92.382812 210.460938 102.796875 227.132812 102.796875 C 243.804688 102.796875 258.039062 92.382812 263.808594 77.679688 C 258.039062 62.980469 243.820312 52.566406 227.132812 52.566406 Z M 227.132812 94.425781 C 217.929688 94.425781 210.460938 86.921875 210.460938 77.679688 C 210.460938 68.4375 217.929688 60.9375 227.132812 60.9375 C 236.335938 60.9375 243.804688 68.4375 243.804688 77.679688 C 243.804688 86.921875 236.335938 94.425781 227.132812 94.425781 Z M 227.132812 67.632812 C 221.613281 67.632812 217.128906 72.136719 217.128906 77.679688 C 217.128906 83.222656 221.613281 87.726562 227.132812 87.726562 C 232.648438 87.726562 237.136719 83.222656 237.136719 77.679688 C 237.136719 72.136719 232.648438 67.632812 227.132812 67.632812 Z M 227.132812 67.632812 " fill-opacity="1" fill-rule="nonzero"/></g></svg>